<?xml version="1.0" encoding="UTF-8"?>
<svg id="Camada_2" data-name="Camada 2" xmlns="http://www.w3.org/2000/svg" xmlns:xlink="http://www.w3.org/1999/xlink" viewBox="0 0 198.7 229.4">
  <defs>
    <style>
      .cls-1 {
        fill: url(#Gradiente_sem_nome_83-33);
      }

      .cls-2 {
        fill: url(#Gradiente_sem_nome_83-6);
      }

      .cls-3 {
        fill: url(#Gradiente_sem_nome_83-7);
      }

      .cls-4 {
        fill: url(#Gradiente_sem_nome_83-20);
      }

      .cls-5 {
        fill: url(#Gradiente_sem_nome_83-10);
      }

      .cls-6 {
        fill: url(#Gradiente_sem_nome_83-3);
      }

      .cls-7 {
        fill: url(#Gradiente_sem_nome_83-17);
      }

      .cls-8 {
        fill: url(#Gradiente_sem_nome_83-27);
      }

      .cls-9 {
        fill: url(#Gradiente_sem_nome_83-12);
      }

      .cls-10 {
        fill: url(#Gradiente_sem_nome_83-29);
      }

      .cls-11 {
        fill: url(#Gradiente_sem_nome_83-13);
      }

      .cls-12 {
        fill: url(#Gradiente_sem_nome_83-16);
      }

      .cls-13 {
        fill: url(#Gradiente_sem_nome_83-26);
      }

      .cls-14 {
        fill: url(#Gradiente_sem_nome_83-31);
      }

      .cls-15 {
        fill: url(#Gradiente_sem_nome_83-18);
      }

      .cls-16 {
        fill: url(#Gradiente_sem_nome_83);
      }

      .cls-17 {
        fill: url(#Gradiente_sem_nome_83-34);
      }

      .cls-18 {
        fill: url(#Gradiente_sem_nome_83-2);
      }

      .cls-19 {
        fill: url(#Gradiente_sem_nome_83-28);
      }

      .cls-20 {
        fill: url(#Gradiente_sem_nome_83-19);
      }

      .cls-21 {
        fill: url(#Gradiente_sem_nome_83-9);
      }

      .cls-22 {
        fill: url(#Gradiente_sem_nome_83-30);
      }

      .cls-23 {
        fill: url(#Gradiente_sem_nome_83-21);
      }

      .cls-24 {
        fill: url(#Gradiente_sem_nome_83-25);
      }

      .cls-25 {
        fill: url(#Gradiente_sem_nome_83-4);
      }

      .cls-26 {
        fill: url(#Gradiente_sem_nome_83-15);
      }

      .cls-27 {
        fill: url(#Gradiente_sem_nome_83-32);
      }

      .cls-28 {
        fill: url(#Gradiente_sem_nome_83-23);
      }

      .cls-29 {
        fill: url(#Gradiente_sem_nome_83-8);
      }

      .cls-30 {
        fill: url(#Gradiente_sem_nome_83-24);
      }

      .cls-31 {
        fill: url(#Gradiente_sem_nome_83-14);
      }

      .cls-32 {
        fill: url(#Gradiente_sem_nome_83-11);
      }

      .cls-33 {
        fill: url(#Gradiente_sem_nome_83-5);
      }

      .cls-34 {
        fill: url(#Gradiente_sem_nome_83-22);
      }
    </style>
    <linearGradient id="Gradiente_sem_nome_83" data-name="Gradiente sem nome 83" x1="0" y1="114.7" x2="198.7" y2="114.7" gradientUnits="userSpaceOnUse">
      <stop offset="0" stop-color="#b8a901"/>
      <stop offset="1" stop-color="#daff00"/>
    </linearGradient>
    <linearGradient id="Gradiente_sem_nome_83-2" data-name="Gradiente sem nome 83" x1="72.32" y1="187.45" x2="123.2" y2="187.45" xlink:href="#Gradiente_sem_nome_83"/>
    <linearGradient id="Gradiente_sem_nome_83-3" data-name="Gradiente sem nome 83" x1="10.76" y1="43.14" x2="176.95" y2="43.14" xlink:href="#Gradiente_sem_nome_83"/>
    <linearGradient id="Gradiente_sem_nome_83-4" data-name="Gradiente sem nome 83" x1="47.42" y1="114.8" x2="145.19" y2="114.8" xlink:href="#Gradiente_sem_nome_83"/>
    <linearGradient id="Gradiente_sem_nome_83-5" data-name="Gradiente sem nome 83" x1="67.86" y1="131.56" x2="132.29" y2="131.56" xlink:href="#Gradiente_sem_nome_83"/>
    <linearGradient id="Gradiente_sem_nome_83-6" data-name="Gradiente sem nome 83" x1="133.48" y1="130.01" x2="174.56" y2="130.01" xlink:href="#Gradiente_sem_nome_83"/>
    <linearGradient id="Gradiente_sem_nome_83-7" data-name="Gradiente sem nome 83" x1="89.46" y1="178.36" x2="126.32" y2="178.36" xlink:href="#Gradiente_sem_nome_83"/>
    <linearGradient id="Gradiente_sem_nome_83-8" data-name="Gradiente sem nome 83" x1="24.2" y1="131.29" x2="60.44" y2="131.29" xlink:href="#Gradiente_sem_nome_83"/>
    <linearGradient id="Gradiente_sem_nome_83-9" data-name="Gradiente sem nome 83" x1="63.43" y1="177.84" x2="73.73" y2="177.84" xlink:href="#Gradiente_sem_nome_83"/>
    <linearGradient id="Gradiente_sem_nome_83-10" data-name="Gradiente sem nome 83" x1="125.82" y1="178.35" x2="134.61" y2="178.35" xlink:href="#Gradiente_sem_nome_83"/>
    <linearGradient id="Gradiente_sem_nome_83-11" data-name="Gradiente sem nome 83" x1="68.61" y1="138.02" x2="131.96" y2="138.02" xlink:href="#Gradiente_sem_nome_83"/>
    <linearGradient id="Gradiente_sem_nome_83-12" data-name="Gradiente sem nome 83" x1="184.52" y1="63.94" x2="187.23" y2="63.94" xlink:href="#Gradiente_sem_nome_83"/>
    <linearGradient id="Gradiente_sem_nome_83-13" data-name="Gradiente sem nome 83" x1="30.68" y1="96.72" x2="42.25" y2="96.72" xlink:href="#Gradiente_sem_nome_83"/>
    <linearGradient id="Gradiente_sem_nome_83-14" data-name="Gradiente sem nome 83" x1="155.84" y1="96.62" x2="166.42" y2="96.62" xlink:href="#Gradiente_sem_nome_83"/>
    <linearGradient id="Gradiente_sem_nome_83-15" data-name="Gradiente sem nome 83" x1="101.81" y1="120.01" x2="143.92" y2="120.01" xlink:href="#Gradiente_sem_nome_83"/>
    <linearGradient id="Gradiente_sem_nome_83-16" data-name="Gradiente sem nome 83" x1="55.2" y1="119.95" x2="94.7" y2="119.95" xlink:href="#Gradiente_sem_nome_83"/>
    <linearGradient id="Gradiente_sem_nome_83-17" data-name="Gradiente sem nome 83" x1="61.53" y1="130.74" x2="66.36" y2="130.74" xlink:href="#Gradiente_sem_nome_83"/>
    <linearGradient id="Gradiente_sem_nome_83-18" data-name="Gradiente sem nome 83" x1="56.82" y1="65.63" x2="65.6" y2="65.63" xlink:href="#Gradiente_sem_nome_83"/>
    <linearGradient id="Gradiente_sem_nome_83-19" data-name="Gradiente sem nome 83" x1="30.9" y1="146.24" x2="38.77" y2="146.24" xlink:href="#Gradiente_sem_nome_83"/>
    <linearGradient id="Gradiente_sem_nome_83-20" data-name="Gradiente sem nome 83" x1="39.78" y1="74.07" x2="46.88" y2="74.07" xlink:href="#Gradiente_sem_nome_83"/>
    <linearGradient id="Gradiente_sem_nome_83-21" data-name="Gradiente sem nome 83" x1="161.92" y1="145.46" x2="167.98" y2="145.46" xlink:href="#Gradiente_sem_nome_83"/>
    <linearGradient id="Gradiente_sem_nome_83-22" data-name="Gradiente sem nome 83" x1="81.68" y1="198.32" x2="88.98" y2="198.32" xlink:href="#Gradiente_sem_nome_83"/>
    <linearGradient id="Gradiente_sem_nome_83-23" data-name="Gradiente sem nome 83" x1="91.79" y1="57.39" x2="106.23" y2="57.39" xlink:href="#Gradiente_sem_nome_83"/>
    <linearGradient id="Gradiente_sem_nome_83-24" data-name="Gradiente sem nome 83" x1="150.43" y1="72.95" x2="157.48" y2="72.95" xlink:href="#Gradiente_sem_nome_83"/>
    <linearGradient id="Gradiente_sem_nome_83-25" data-name="Gradiente sem nome 83" x1="145.78" y1="116.63" x2="150.39" y2="116.63" xlink:href="#Gradiente_sem_nome_83"/>
    <linearGradient id="Gradiente_sem_nome_83-26" data-name="Gradiente sem nome 83" x1="76.25" y1="195.54" x2="83.31" y2="195.54" xlink:href="#Gradiente_sem_nome_83"/>
    <linearGradient id="Gradiente_sem_nome_83-27" data-name="Gradiente sem nome 83" x1="87.58" y1="201.55" x2="93.93" y2="201.55" xlink:href="#Gradiente_sem_nome_83"/>
    <linearGradient id="Gradiente_sem_nome_83-28" data-name="Gradiente sem nome 83" x1="92.67" y1="205.43" x2="98.42" y2="205.43" xlink:href="#Gradiente_sem_nome_83"/>
    <linearGradient id="Gradiente_sem_nome_83-29" data-name="Gradiente sem nome 83" x1="156.59" y1="102.49" x2="167.64" y2="102.49" xlink:href="#Gradiente_sem_nome_83"/>
    <linearGradient id="Gradiente_sem_nome_83-30" data-name="Gradiente sem nome 83" x1="154.89" y1="136.47" x2="157.6" y2="136.47" xlink:href="#Gradiente_sem_nome_83"/>
    <linearGradient id="Gradiente_sem_nome_83-31" data-name="Gradiente sem nome 83" x1="152.7" y1="77.45" x2="153.7" y2="77.45" xlink:href="#Gradiente_sem_nome_83"/>
    <linearGradient id="Gradiente_sem_nome_83-32" data-name="Gradiente sem nome 83" x1="46.71" y1="106.99" x2="152.47" y2="106.99" xlink:href="#Gradiente_sem_nome_83"/>
    <linearGradient id="Gradiente_sem_nome_83-33" data-name="Gradiente sem nome 83" x1="26.04" y1="85.96" x2="172.23" y2="85.96" xlink:href="#Gradiente_sem_nome_83"/>
    <linearGradient id="Gradiente_sem_nome_83-34" data-name="Gradiente sem nome 83" x1="42.7" y1="100.45" x2="43.7" y2="100.45" xlink:href="#Gradiente_sem_nome_83"/>
  </defs>
  <g id="Camada_1-2" data-name="Camada 1">
    <g>
      <path class="cls-16" d="M99.26,229.4c-15.66-6.55-29.01-13.66-42.13-22.93-28.09-19.86-46.42-49.4-50.83-83.81C3.26,98.97,2.5,75.85.75,52.01c-.45-6.04-1.06-11.51-.56-17.74C36.69,29.91,65.44,15.06,99.08,0l37.91,16.95c19.68,8.8,39.66,14.59,61.7,17.26l-5.95,82.64c-2.27,31.48-16.64,59.2-39.97,80.13-15.4,14.23-33.39,23.99-53.52,32.42ZM99.66,224.01c21.8-10.04,43.02-22.02,57.73-39.39,6.47-7.64,13.26-14.75,16.75-24.42-3.16-.02-3.73,3.05-5.82,4.21-9.46,5.26-19.51,8.59-30.25,9.7-.61-3.12-1.49-4.86-3.21-7.59,14.55-3.86,28.43-8.02,42.69-12.83,6.78-14.92,9.45-30.25,10.62-46.57l4.86-68.12c-35.62-5.05-62.89-18.34-93.99-33.09-31.57,14.5-59.61,28.63-94.09,33.06l5.18,71.33c1.12,15.37,4.03,29.75,10.46,43.48,14.69,5.19,28.45,9.47,43.12,12.88-1.61,2.04-.9,5.74-2.26,6.99-2.68,1.42-6.93-.17-9.75-.96-6.92-1.95-2.67,4.92-15.21.48-5.92-2.1-7.02-8.33-12.57-12.08,15.22,31.22,43.8,49.2,75.74,62.91Z"/>
      <path class="cls-18" d="M116.7,201.27c-2.52,2.23-7.13-6.15-11.22-6.55-1.36,2.59,9.72,6.93,5.69,9.97-3.16,2.38-4.63-5.44-8.75-3.88.79,2.49,2.76,2.69,4.11,4.35-.78,2.09-2.76,2.52-4.15,2.48-3.06-.07-1.82-2.63-2.84-4.61-3.6-6.98-10.73-12.99-18.78-13.27-2.18-.07-3.31,3.34-5.01,1.57-1.47-1.53-3.95-2.57-3.33-5.29,1.2-5.19,2.04-10.25,4.43-15.08,11.04,1.71,12.94-6.14,17.01-2.94-2.9,2.88-7.18,5.36-7.4,9.84-.12,2.36,2.54,3.59,3.98,3.88,6.6,1.32,8.56-9.21,16-2.55l16.71,14.96c.3,1.39-.48,2.27-1.24,2.56-4.23,1.65-7.75-7.1-12.42-7.46-1.11,3.64,11.97,7.8,7.23,11.99Z"/>
      <path class="cls-6" d="M99.24,15.92c-29.16,12.09-54.47,22.84-85.61,29.16l-.08,29.02c-2.61-10.28-1.78-19.85-2.79-30.77,30.86-5.02,59.18-18.18,88.17-31.15l20.81,9.07c18.86,8.23,37.58,14.68,57.21,20.34-16.33-1.65-30.95-7.45-45.88-13.27l-31.83-12.41Z"/>
      <path class="cls-25" d="M98.18,121.71c-1.37-3.84-2.82-5.31-6.54-5.3l-38.24.19c-1.17,1.24-1.81,3.7-3.81,3.69-1.34,0-1.94-1.48-2.07-2.28-.17-1.03-.26-3.67,1.37-3.78,2.72-.18,4.73-1.1,7.12-1.82,5.61-1.68,11.77.08,17.48-1.16,3.21-.7,5.67-1.71,9.31-.74,4.43,1.19,8.97-1.03,13.44.51-6.93,2.12-13.34-1.25-20.71,2.11,6.52,2.34,13.29,1.14,20.08.9,1.36-2.32,1.73-4.12,3.38-6.17,1.03,2.26,1.09,4.32,2.2,5.22,1.91,1.55,4.29,1.28,6.49,1.21l22.08-.76c-9.35-2.94-18.9-.49-28.48-2.7,7.09-.73,14.01-1.7,20.96-.4,12.59,2.37,15.44-1.56,22.96,4.96-13.41,3.7-26.66-1.58-42.09,1.35-2.17.41-1.39,2.77-4.93,4.96Z"/>
      <path class="cls-33" d="M108.65,134.49c-7.77-1.41-14.59.31-21.97.18l-17.91-.32c-1.37-.83-1.13-4.84.3-5.92l62.18-.37c.68,2.22.84,3.48,1.04,5.72-7.71.41-15.6,2.17-23.64.71Z"/>
      <path class="cls-2" d="M171.89,131.26c-10.39,1.11-20.41,1.85-31.13,1.6-1.06-.52-.5-2.77-2.05-3.03-.94,2.71-.32,6.84-2.86,8.2-2.88,1.2-3.39-14.4-.07-16.12,1.95,1.85,1.5,3.58,2.97,5.56,9.35-.58,18.63-.08,27.96-1.45,3.75-.55,5.41-1.78,7.36,2.21,1.1,2.24.49,5.94-3.05,6.71-3.92.85-8.24,1.77-12.54.73,4.29-2.06,9.21,0,13.42-4.42Z"/>
      <path class="cls-3" d="M121.51,188.64l-13.96-12.65c-9.15-8.29-13.83,7.64-18.09,1.87,1.16-4.91,6.92-8.58,11.51-10.35,8.98-3.46,12.96,5.46,22.47,3.64l2.84,15.85c.24,1.36-.5,2.11-1.07,2.55-1.26.98-2.3.35-3.69-.91Z"/>
      <path class="cls-29" d="M26.49,130.92c-1,5.95,28.63,3.01,33.42,5.56-5.55.33-38.96,2.89-35.44-8.34,1.21-3.87,3.76-2.23,6.92-2.03l28.32,1.77c1.63.1.27,4.66-1.31,4.7-10.65.27-20.89-.02-31.9-1.66Z"/>
      <path class="cls-21" d="M73.73,169.33c-3.16,7.47-2.23,21.44-8.85,18.97-3.96-1.48,1.33-16,2.09-21.18,2.54-.26,4.49.64,6.76,2.2Z"/>
      <path class="cls-5" d="M131.85,166.98c.62,3.71,4.41,21.01,1.92,22.18-.88.41-3.47,1.16-3.79-.35l-4.15-19.73c1.18-1.52,3.72-2.1,6.02-2.1Z"/>
      <path class="cls-32" d="M131.78,136.98c1.76,1.74-10.17,1.76-12.15,1.78l-43.84.3c-2.28-1.29-4.85-.2-7.17-1.96l63.17-.11Z"/>
      <path class="cls-9" d="M186.09,43.76c1.59,1.24,1.89,41.41-1.57,40.35l1.57-40.35Z"/>
      <path class="cls-11" d="M42,96.63c-.86,2.34-1.57,4.51-3.06,4.97-3.88,1.21-8.53-3.03-8.25-6.14.15-1.65,5.72-4.94,9.04-3.48,1.29.57,3.21,2.08,2.27,4.64Z"/>
      <path class="cls-31" d="M164.65,99.52c-1.77,2.48-4.53,2.86-6.61,1.44-1.75-1.19-2.48-3.92-2.08-6.31.33-1.96,3.14-3.15,5.61-3.2,2.09-.05,3.9,1.08,4.55,2.5.81,1.77-.06,3.61-1.46,5.57Z"/>
      <path class="cls-26" d="M143.81,118.85c2.57,3.33-40.48,2.51-41.99,1.01l41.99-1.01Z"/>
      <rect class="cls-12" x="55.2" y="118.95" width="39.5" height="2"/>
      <path class="cls-7" d="M63.63,122.39c4.29.42,2.91,19.48.01,16.34-3.65-3.95-1.84-11.26-.01-16.34Z"/>
      <path class="cls-15" d="M65.6,57.87c-5.71,5.94-5.27,13.39-8.79,15.77,2.16-6.67,1.08-17.85,8.79-15.77Z"/>
      <path class="cls-20" d="M38.77,154.12c-3.32,1.73-6.83-1.47-7.12-4.84-.37-4.12-1.06-7.69-.58-11.41,3.93,5.51-.46,9.86,7.7,16.25Z"/>
      <path class="cls-4" d="M45.52,70.74c2.14,1.22,1.55,6.44-.38,6.94-1.03.27-5.35-2.22-5.36-4.23,0-1.47,1.24-2.79,3.07-2.96,1.09-.1,2.04-.12,2.67.24Z"/>
      <path class="cls-23" d="M167.27,137.52c1.92-.15-.09,18.31-5.35,15.62,3.06-4.46,3.27-9.54,5.35-15.62Z"/>
      <path class="cls-34" d="M84.08,202.33c-1.58.66-2.62-1.36-2.36-1.97-.02.05,5.64-9.58,7.26-4.91.1,2.1-2.45,5.86-4.9,6.88Z"/>
      <path class="cls-28" d="M105.11,58.46c-4.9.69-9.31,1.64-13.32-1.06,5.67-4.37,18.23.37,13.32,1.06Z"/>
      <path class="cls-30" d="M155.96,75.43c-2.22.52-4.02-.61-5.51.18-.21-2.56.85-4.85,3.33-5.27,1.63-.27,2.96.46,3.44,1.48.44.94.51,3.2-1.26,3.61Z"/>
      <path class="cls-24" d="M150.34,117.38c-.2,1.83-1.39,2.8-2.28,2.82-1.19.03-2.1-1.1-2.25-1.89-.27-1.45,1.29-1.91,2.97-2.68l-2.96-1.37c1.13-1.51,2.16-1.32,3.13-.8,1.07.57,1.64,1.8,1.4,3.93Z"/>
      <path class="cls-13" d="M83.01,193.02c1.4,1.16-2.55,5.05-3.26,5.44-1.1.61-2.34,0-3.5-1.64,1.58-2.61,4.3-5.85,6.76-3.8Z"/>
      <path class="cls-8" d="M93.05,201.96l-2.23,2.71c-.69.84-3.48.73-3.22-.54.23-1.15,3.86-8.63,6.11-5.46.41.58.31,2.11-.65,3.29Z"/>
      <path class="cls-19" d="M98.31,204.49c.76,1.24-2.59,3.59-3.95,3.42-.74-.09-1.62-.42-1.68-1.45-.07-1.33,2.53-3.3,3.53-3.51.68-.14,1.59.69,2.11,1.53Z"/>
      <path class="cls-10" d="M156.59,103.3c7.35-1.51,7.4,2.04,11.03-3.37.29,2.8-2.46,3.86-3.93,4.56-2.59,1.23-4.92.17-7.09-1.2Z"/>
      <path class="cls-22" d="M157.01,135.86c1.05.57.61,1.1-.55,1.23-2.32-.16-2.03-1.36.55-1.23Z"/>
      <circle class="cls-14" cx="153.2" cy="77.45" r=".5"/>
      <path class="cls-27" d="M148.79,106.69c.92,1.52,1.99,1.88,2.98,2.09-.34,1.63.74,1.99.7,3.19-10.33-9.92-63.26-7.91-78.79-7.09-9.58.5-18.35,1.94-26.97,6.05,4.23-12.05,74.62-8.82,83.6-7.53,4.54.66,14.45,2.89,18.47,3.29Z"/>
      <path class="cls-1" d="M151.77,108.78c-.62-.54-1.1-2.03-2.98-2.09-3.42-5.68-39.71-6.96-48.29-7.28l-.49-20.47c-.02-.77-.24-2.61-.88-2.49-.57.1-1.51.42-2.01.61.4-.15,2.23,17.66.78,22.37-14.94.43-29.29,1.1-43.17,4.49-9.64,2.35-13.61,8.72-13.47,18.24-.34,3.61-11.06,4.13-12.49.11-2.43-6.84-.41-14.09-2.16-21.04-1.88-7.46.86-15.34,8.43-17.6,3.08-.92,5.91-.21,6.62,3.41-4.79-2.38-9.05-.64-11.97,2.45-3.54,3.74-2.68,9.37.35,13.03,4.32-3.12,2.5,4.21,12.73-.65-2.26,4.28-6.96,2.74-11.29,2.1,1,3.14,4.54,3.75,7.03,3.31,6.45-1.15,6.92-7.47,11.05-13.03l-4.03-9.94c8.62-2.19,16.81,3.46,21.58,11.2-.87-5.9-6.14-9.26-10.73-13.32l14.4-3.88c-7.03-.2-13.57.64-21.32,1.72,3.09-8.86,4.4-17.31,8.1-25.69,1.36-3.09,6.94-4.51,10.42-5.05,21.63-3.37,43.33-3.22,64.81.34,4.17.69,8.15,2.98,9.19,6.9,2.02,7.59,4.37,14.65,5.81,22.42.15.82-1.48.27-1.93.08-1.05-.44-.53-1.82-.84-2.94l-4.22-15.26c-.9-3.26-3.17-6.01-6.97-6.57-23.34-3.46-46.98-3.75-70.19.26-3.24.56-5.08,2.97-5.82,5.84-1.55,5.99-4.44,11.29-4.82,18.03,5.84.61,10.28-2.26,15.28-2.46l28.18-1.16c1.04-.04,1.89-1.6,2.77-1.74s1.81,1.98,2.71,1.94c11.78-.55,22.99.86,33.88,5.64,1.32.58,2.08,1.95,2.3,2.87.73,3-4.24,5.92-4.22,9.64,4.42-4.1,8.39-8.45,14.78-8.26.73,2.72.17,5.27.45,7.98l2.5-.58c-3.27,6.14,3.66,15.08,9.57,14.78,2.92-.15,5.36-1.5,7.33-4.22,3.09-4.26,3.5-9.87-.34-13.78-3.2-3.26-8.58-4.2-13.14-1.35,1.04-4.22,5.38-5.33,9.05-3.83,8.58,3.51,9.34,12.38,6.87,20.36-1.73,5.58,1.75,12.63-1.69,18.03-1.97,3.09-9.73,3.07-12.46,1.09-2.19-1.58,2.29-11.4-5.07-14.54ZM37.78,120.81c2.47-.94,1.86-3.11,1.15-4.62-.44-.94-1.5-2.05-3.49-1.35,1.85,2.02,2.49,3.73,2.34,5.97ZM36.81,121.95c0-.61-.5-1.11-1.11-1.11s-1.11.5-1.11,1.11.5,1.11,1.11,1.11,1.11-.5,1.11-1.11Z"/>
      <circle class="cls-17" cx="43.2" cy="100.45" r=".5"/>
    </g>
  </g>
</svg>