<?xml version="1.0" encoding="UTF-8"?>
<svg id="Camada_2" data-name="Camada 2" xmlns="http://www.w3.org/2000/svg" xmlns:xlink="http://www.w3.org/1999/xlink" viewBox="0 0 223.69 227.06">
  <defs>
    <style>
      .cls-1 {
        fill: url(#Gradiente_sem_nome_83-6);
      }

      .cls-2 {
        fill: url(#Gradiente_sem_nome_83-7);
      }

      .cls-3 {
        fill: url(#Gradiente_sem_nome_83-10);
      }

      .cls-4 {
        fill: url(#Gradiente_sem_nome_83-3);
      }

      .cls-5 {
        fill: url(#Gradiente_sem_nome_83-12);
      }

      .cls-6 {
        fill: url(#Gradiente_sem_nome_83);
      }

      .cls-7 {
        fill: url(#Gradiente_sem_nome_83-2);
      }

      .cls-8 {
        fill: url(#Gradiente_sem_nome_83-9);
      }

      .cls-9 {
        fill: url(#Gradiente_sem_nome_83-4);
      }

      .cls-10 {
        fill: url(#Gradiente_sem_nome_83-8);
      }

      .cls-11 {
        fill: url(#Gradiente_sem_nome_83-11);
      }

      .cls-12 {
        fill: url(#Gradiente_sem_nome_83-5);
      }
    </style>
    <linearGradient id="Gradiente_sem_nome_83" data-name="Gradiente sem nome 83" x1="0" y1="113.53" x2="223.69" y2="113.53" gradientUnits="userSpaceOnUse">
      <stop offset="0" stop-color="#b8a901"/>
      <stop offset="1" stop-color="#daff00"/>
    </linearGradient>
    <linearGradient id="Gradiente_sem_nome_83-2" data-name="Gradiente sem nome 83" x1="45.4" y1="115.37" x2="177.66" y2="115.37" xlink:href="#Gradiente_sem_nome_83"/>
    <linearGradient id="Gradiente_sem_nome_83-3" data-name="Gradiente sem nome 83" x1="42.08" y1="186.22" x2="180.39" y2="186.22" xlink:href="#Gradiente_sem_nome_83"/>
    <linearGradient id="Gradiente_sem_nome_83-4" data-name="Gradiente sem nome 83" x1="42.37" y1="49.71" x2="180.42" y2="49.71" xlink:href="#Gradiente_sem_nome_83"/>
    <linearGradient id="Gradiente_sem_nome_83-5" data-name="Gradiente sem nome 83" x1="56.15" y1="37.83" x2="165.87" y2="37.83" xlink:href="#Gradiente_sem_nome_83"/>
    <linearGradient id="Gradiente_sem_nome_83-6" data-name="Gradiente sem nome 83" x1="53.94" y1="40.35" x2="54.94" y2="40.35" xlink:href="#Gradiente_sem_nome_83"/>
    <linearGradient id="Gradiente_sem_nome_83-7" data-name="Gradiente sem nome 83" x1="73.34" y1="112.87" x2="149.44" y2="112.87" xlink:href="#Gradiente_sem_nome_83"/>
    <linearGradient id="Gradiente_sem_nome_83-8" data-name="Gradiente sem nome 83" x1="90.98" y1="158.68" x2="131.4" y2="158.68" xlink:href="#Gradiente_sem_nome_83"/>
    <linearGradient id="Gradiente_sem_nome_83-9" data-name="Gradiente sem nome 83" x1="55.33" y1="113.67" x2="63.05" y2="113.67" xlink:href="#Gradiente_sem_nome_83"/>
    <linearGradient id="Gradiente_sem_nome_83-10" data-name="Gradiente sem nome 83" x1="163.42" y1="112.02" x2="167.61" y2="112.02" xlink:href="#Gradiente_sem_nome_83"/>
    <linearGradient id="Gradiente_sem_nome_83-11" data-name="Gradiente sem nome 83" x1="132.88" y1="165.89" x2="158.8" y2="165.89" xlink:href="#Gradiente_sem_nome_83"/>
    <linearGradient id="Gradiente_sem_nome_83-12" data-name="Gradiente sem nome 83" x1="61.79" y1="165.93" x2="86.03" y2="165.93" xlink:href="#Gradiente_sem_nome_83"/>
  </defs>
  <g id="Camada_1-2" data-name="Camada 1">
    <g>
      <path class="cls-6" d="M185.3,192.36c21.34-23.14,34.59-52.65,32.79-84.45-2.29-40.54-26.2-75.31-62.54-92.66C109.77-6.59,55.27,8.91,25.94,49.65-4.51,91.97-1.36,148.64,34.15,186.82c1.44,1.55.72,5.08-1.31,6.61C-8.82,149.36-11.19,85.77,27.74,39.56,50.57,12.45,88.16-3.65,123.44.71c59.12,7.3,103.15,59.62,100.1,119.18-.71,13.91-4.08,26.58-9.56,39.2-18.54,42.71-61.22,70.1-108.09,67.84-25.64-1.24-49.21-11.95-67.52-28.24,3.2-.24,6.09-1.35,8.24.33,38.62,30.17,91.71,29.56,130.45.14,3.17-2.4,4.97-3.27,8.23-6.81Z"/>
      <path class="cls-7" d="M174.54,168.24c0,3.28,1.33,3.98,3.13,6.02-12.46.81-24.11.29-36.81.28l-95.46-.11c2.14-2.3,2.63-3.74,2.64-6.63V56.45c9.52.28,19.02-.98,29-.13,21.89,1.87,42.99.3,64.75.19l32.79-.17-.03,111.9ZM139.99,58.56l20.16.9c-.87,2.39-3.15,2.27-5.25,2.27l-88.62-.03c-1.61,0-4.16-1.12-3.13-2.56.39-.55,1.53.41,1.95.36.28-.03.89-1.21.6-1.52l-14.24-.5.46,114.37,54.06.3,65.11-.19-.22-113.97-19.94-.67c-3.95-.13-8.04-1.08-10.94,1.24Z"/>
      <path class="cls-4" d="M66.52,189.38c-4.39-.01-5.4,2.46-7.58,4.67-3.7,1.69-9.38.7-13.51.11-5.22-.76-2.74-11.79-2.93-16.19,3.39.77,6.54,1.02,10.56,1.02h119.51c2.71,0,4.8-2.61,7.48-1.21-.09,4.25,1.05,8.84-.48,12.74-2.51,6.43-18.27,4.34-20.03,3.72-.89-.31-.73-2.77-1.28-3.36-.9-.96-2.5-1.28-4.38-1.29l-87.36-.22Z"/>
      <path class="cls-9" d="M179.48,46.94c1.23.64,1.37,4.8-.25,6.24-1,.89-2.39-1.04-3.67-1.03l-41.59.06c-9.33.01-18.2-.14-27.48-.14h-56.33c-2.16,0-4.99,1.43-6.88.17-1.37-.91-1.02-4.74-.06-5.9.63-.76,2.87-.04,3.56.45s.63,1.79,1.31,3.38c2.64-1.73,5.45-2.25,8.91-2.25l75.9.04,43.85-.26c1,0,2.17-1.06,2.74-.76Z"/>
      <path class="cls-12" d="M165.87,38.35l-100.83-.12c-3.33,0-5.74.67-8.89,1.08,1.46-1.51,3.35-2.96,5.9-2.96l96.85.03c2.94,0,5.24.36,6.97,1.97Z"/>
      <circle class="cls-1" cx="54.44" cy="40.35" r=".5"/>
      <path class="cls-2" d="M124.39,150.37c-9.37.76-18.57.76-27.45.06-2.25-7.83,11.19-3.76,9.78-18.9-1.06-11.4-2.53-2.67-11.37-14.72-12.11-4.32-21.53-13.75-22-26.97-.11-3.14.69-5.8,2.81-7.24s5.58-2.85,7.8-.7c1.64,1.59,1.76,4.89,5.51,4.53.99-2.75.52-5.39,1.01-8.34,13.66-4.49,28.04-4.4,42.06.24l.97,8.74c4.19-.48,3.24-8.69,11.38-5.65,1.8.67,4.06,3.05,4.37,5.82,2.33,21.42-20.65,29.28-21.74,30.18-3.48,2.86-5.63,6.44-10.23,8.11-2.42.88-.69,4.67-1.26,6.14-1.14,2.94-1.21,4.76.44,7.51,1.75,2.91,2.71,5.87,6.98,6.39,1.31.16,2.33,4.69.95,4.81ZM131.83,80.9l-39.89.25c13.21,3.45,27.11,4.01,39.89-.25ZM94.33,112.9c-2.68-7.88-2.86-15.31-4.19-22.82-2.11-.5-3.77-.42-5.36-1.13-.44-2.35-1.21-4.63-3.45-4.68-1.86-.04-4.07,1.09-4.24,3.75-.66,10.64,5.89,19.83,15.56,23.93.12,1.59.73,2.46,1.68.94ZM121.28,118.41c6.61-1.08,10.42-29.14,9.49-34.31-.94-1.06-2.97.92-2.96,2.54.08,11.11-1.72,21.74-6.53,31.77ZM129.06,112.95c4.81-.7,5.27-3.67,8.08-4.99,6.24-4.41,12.34-20.83,5.85-23.73-4.49-2-1.78,5.62-10.36,5.9-.91,7.36-1.63,15.39-3.56,22.82ZM100.56,117.08c-6.95-15.37-2.8-21.73-6.97-33.08-1.84,5.58,1.3,32.35,6.97,33.08Z"/>
      <path class="cls-10" d="M131.4,164.49l-40.35.44c-.29-4.51.36-8.02.67-12.5h37.77c1.44,3.7,1.32,6.72,1.91,12.06Z"/>
      <path class="cls-8" d="M58.51,158.85c-.02,2.09-1.03,4.75-3.14,6.39l1.55-40.13c.12-3.1-.72-4.97-.92-7.66-1.18-15.64-.37-30.84-.62-46.61-.05-2.87-.11-6.59,2.15-8.58,1.42-.64,4.56.84,5.53,2.31-2.15.94-3.07-.98-5.29-.66l.29,47.74c0,1.03,2.21,2.17,2.38,3,.3,1.45-1.52,2.7-1.53,4.24l-.38,39.98Z"/>
      <path class="cls-3" d="M164.96,162.47c-2.73-14.57.29-28.81-1.4-43.3-.37-3.14.08-5.26.37-8.31.89-9.35.28-18.57.5-27.99.17-7.38-1.28-14.5,1.3-21.29,1.39,16.98-.1,32.79.38,49.41.07,2.4,3.52,5.05-.25,7.26-.59,14.59,1.45,28.82-.89,44.23Z"/>
      <path class="cls-11" d="M158.8,168.52l-25.92.18c1.46-1.61,2.05-3.04,2.75-5.37l20.21-.26c1.18.66,1.79,3.42,2.97,5.45Z"/>
      <path class="cls-5" d="M85.72,168.82l-23.93-.23c5.96-8.42,13.35-4.54,24.03-5.25.36,1.71.21,2.8-.11,5.48Z"/>
    </g>
  </g>
</svg>