<?xml version="1.0" encoding="UTF-8"?>
<svg id="Camada_2" data-name="Camada 2" xmlns="http://www.w3.org/2000/svg" xmlns:xlink="http://www.w3.org/1999/xlink" viewBox="0 0 225.9 225.9">
  <defs>
    <style>
      .cls-1 {
        fill: url(#Gradiente_sem_nome_83-6);
      }

      .cls-2 {
        fill: url(#Gradiente_sem_nome_83-7);
      }

      .cls-3 {
        fill: url(#Gradiente_sem_nome_83-10);
      }

      .cls-4 {
        fill: url(#Gradiente_sem_nome_83-3);
      }

      .cls-5 {
        fill: url(#Gradiente_sem_nome_83);
      }

      .cls-6 {
        fill: url(#Gradiente_sem_nome_83-2);
      }

      .cls-7 {
        fill: url(#Gradiente_sem_nome_83-9);
      }

      .cls-8 {
        fill: url(#Gradiente_sem_nome_83-4);
      }

      .cls-9 {
        fill: url(#Gradiente_sem_nome_83-8);
      }

      .cls-10 {
        fill: url(#Gradiente_sem_nome_83-5);
      }
    </style>
    <linearGradient id="Gradiente_sem_nome_83" data-name="Gradiente sem nome 83" x1="0" y1="112.95" x2="225.9" y2="112.95" gradientUnits="userSpaceOnUse">
      <stop offset="0" stop-color="#b8a901"/>
      <stop offset="1" stop-color="#daff00"/>
    </linearGradient>
    <linearGradient id="Gradiente_sem_nome_83-2" data-name="Gradiente sem nome 83" x1="27.67" y1="135.49" x2="178.39" y2="135.49" xlink:href="#Gradiente_sem_nome_83"/>
    <linearGradient id="Gradiente_sem_nome_83-3" data-name="Gradiente sem nome 83" x1="116.33" y1="107.76" x2="198.07" y2="107.76" xlink:href="#Gradiente_sem_nome_83"/>
    <linearGradient id="Gradiente_sem_nome_83-4" data-name="Gradiente sem nome 83" x1="82.67" y1="70" x2="142.87" y2="70" xlink:href="#Gradiente_sem_nome_83"/>
    <linearGradient id="Gradiente_sem_nome_83-5" data-name="Gradiente sem nome 83" x1="47.2" y1="168.85" x2="108.24" y2="168.85" xlink:href="#Gradiente_sem_nome_83"/>
    <linearGradient id="Gradiente_sem_nome_83-6" data-name="Gradiente sem nome 83" x1="82.61" y1="34.79" x2="142.91" y2="34.79" xlink:href="#Gradiente_sem_nome_83"/>
    <linearGradient id="Gradiente_sem_nome_83-7" data-name="Gradiente sem nome 83" x1="82.56" y1="46.93" x2="142.84" y2="46.93" gradientTransform="translate(159.39 -65.87) rotate(89.88)" xlink:href="#Gradiente_sem_nome_83"/>
    <linearGradient id="Gradiente_sem_nome_83-8" data-name="Gradiente sem nome 83" x1="103.6" y1="102.69" x2="108.81" y2="102.69" xlink:href="#Gradiente_sem_nome_83"/>
    <linearGradient id="Gradiente_sem_nome_83-9" data-name="Gradiente sem nome 83" x1="116.87" y1="104.27" x2="122.06" y2="104.27" xlink:href="#Gradiente_sem_nome_83"/>
    <linearGradient id="Gradiente_sem_nome_83-10" data-name="Gradiente sem nome 83" x1="109.07" y1="69.48" x2="118.65" y2="69.48" xlink:href="#Gradiente_sem_nome_83"/>
  </defs>
  <g id="Camada_1-2" data-name="Camada 1">
    <g>
      <path class="cls-5" d="M225.9,112.95c0,62.38-50.57,112.95-112.95,112.95S0,175.33,0,112.95,50.57,0,112.95,0s112.95,50.57,112.95,112.95ZM220.79,112.88c0-59.63-48.34-107.98-107.98-107.98S4.83,53.25,4.83,112.88s48.34,107.98,107.98,107.98,107.98-48.34,107.98-107.98Z"/>
      <path class="cls-6" d="M167.25,183.56c.8,1.53,2.81,3.66,2.36,5.71-.7,3.19-5.26,4.78-8.75,4.83-8.8.13-17.17-5.35-19.84-13.79-1.53-4.83-2.67-9.93-7.13-13.24-19.95-14.82-40.06-28.46-61.16-41.79-3.22-2.04-8.52-5.34-12.24-3.64-9.45,4.31-19.81,3.2-26.87-5.33-3.97-4.8-5.76-11.67-5.94-18.39,5.95,2.12,9.37,6.51,14.99,8.94,3.04,1.32,9.22-1.64,11.1-4.72s2.73-9.78.74-12.3c-3.96-5.02-10.35-5.97-14.92-10.64,6.5-2.71,13.85-3.21,20.33-.63,7.33,2.93,11.79,9.92,12.64,17.77.47,4.33,1.9,8.1,5.69,10.75,21.72,15.2,43.36,29.99,65.91,43.9,11.69,7.21,13.25-6.48,28.23,8.74,6.79,6.9,8.06,16.4,2.68,24.71-2.07-.99-3.76-1.29-5.42-2.46,1.51-4.2,2.99-8.99.38-13.1-1.82-2.87-5.9-6.03-9.47-6.32-6.34-.51-11.09,5.2-11.58,10.34-.63,6.67,3.27,12.33,10,13.56,3.06.56,5.32-.35,8.28-2.91ZM62.96,119.37c4.91-3.38,5.88-8.59,8.88-13.18-4.66,2.9-7.74,7.57-8.88,13.18ZM82.79,115.95c-2.4-3.8-4.62-5.18-8.04-4.43,2.35,2.62,5.19,3.99,8.04,4.43ZM86.02,117.21c0-.61-.5-1.11-1.11-1.11s-1.11.5-1.11,1.11.5,1.11,1.11,1.11,1.11-.5,1.11-1.11ZM97.64,125.87c-3.97-3.29-6.49-6.39-10.96-7.45,2.95,3.9,7.42,5.14,10.96,7.45ZM147.24,159.61c-7.25-6.52-14.95-11.23-22.99-15.64-3.32,1.65-5.6,3.17-8.23,5.24l27.26,18.35c2.14-1.51,3.45-4.16,3.96-7.95Z"/>
      <path class="cls-4" d="M170.84,107.34c-4.13,1.02-6.68,3.79-8.4,8.29l-9.56-9.25c2.56,5.68,6.21,9.65,10.03,15.05-4.26,1.47-7.28,2.43-10.41,4.38l-20.36,12.7-15.8-10.31,27.63-18.86c3.33-2.27,7.82-5.34,8.34-9.63,1.01-8.28,3.86-16.22,11.61-20.22,6.93-3.57,15.55-3.15,22.58.37-4.77,4.36-10.66,5.2-14.65,9.63-3.04,3.39-2.72,11.6.84,14.78,2.26,2.02,7.32,4.03,9.83,3.31l15.54-9.05c.16,6.71-2.12,13.29-6.5,18.32-6.55,7.52-17.52,9.95-26.01,4.73-1.71-1.05-1.92-3.77-3.42-5.6,4.33-1.49,7.25-4.23,8.7-8.64Z"/>
      <path class="cls-8" d="M125.4,78.18c-4.02,3.73-8.05,7.04-13.23,6.68-5.51-.38-8.53-4.44-8.68-9.93-4.54,2.39-3.57,6.43-3.6,10.62l-17.18.23-.04-31.7,60.15-.02.05,31.11c-4.17,1.35-8.6.94-11.87-2.1-1.71,1.98-3.52,3.9-5.7,1.79.05-1.99,2.04-4.3.11-6.69ZM120.54,76.3c3.08-3.54,3.82-8.02,1.7-11.95-1.6-2.97-5.44-6.2-9.7-5.39-5.25,1-7.83,6.2-7.84,11.18,0,4.51,1.94,7.48,5.66,9.06,3.26,1.38,7.23.48,10.17-2.9Z"/>
      <path class="cls-10" d="M59.82,185.48c4.15.91,7.3,1.54,10.78-.77,2.78-1.85,4.62-4.8,5.01-8.94.57-6.09-3.1-12.13-9.72-12.75-4.18-.39-7.99,2.85-9.67,5.25-5.84,8.33,4.62,14.06-5.08,16.56-6.69-7.81-4.21-18.92,2.43-25.84,6.27-6.54,12.52-7.43,21.09-6.28,6.51.62,20.95-16.84,19.15-4.72,2.78-1.57,4.68-.18,7.01,1.41l7.42,5.07c-5.2,3.81-9.95,7.42-15.25,10.67-12.2,7.48-3.26,19.07-17.67,26.38-6.12,3.11-13.62,3.87-19.12-.98-1.57-1.38,1.89-5.43,3.62-5.05ZM82.92,156.72c3.83-3.03,8.2-4.17,10.39-8.8-5.44,2.09-8.64,5.71-13.27,8.35.61,2.17,3.38,11.6,5.88,6.88-1.64-1.85-2.92-3.76-3-6.43Z"/>
      <path class="cls-1" d="M133.36,36.16c1.71,2.99,11.69-1.55,9.13,3.95l-59.28.16c-.92-3.86-.77-6.97.37-10.96l58.01.13c1.62,0,1.57,4.69.65,5.03l-8.88,1.68ZM130.51,36.4c-12.73-2.94-24.47-.07-36.64-1.38-1.78.27-2.51-1.06-3.38-2.72-1.1-.2-1.76,4.69-.51,4.69,13.62,0,26.93,1.14,40.53-.59Z"/>
      <rect class="cls-2" x="110.86" y="16.8" width="3.68" height="60.27" transform="translate(65.52 159.53) rotate(-89.88)"/>
      <path class="cls-9" d="M108.74,96.23c-.84,8.15-.04,24.91-2.29,23.6-.41-.24-.99-.67-.95-1.77.3-8.55.85-16.91.03-25.53-.22-2.29-3.22-4.23-1.28-7.07,3.25,2.49,4.95,6.32,4.49,10.77Z"/>
      <path class="cls-7" d="M118.96,120.88c-2.75-7.54.24-14.8-1.53-22.26-1.09-4.6-1.04-9.73,4.53-10.94.51,2.74-.93,5.26-1.49,7.94l-1.5,25.27Z"/>
      <path class="cls-3" d="M113.44,74.84c-3.08-.2-4.61-3.12-4.34-5.05.33-2.42,1.76-5.7,4.78-5.69s4.67,3.21,4.77,5.61c.09,2.14-2.04,5.34-5.21,5.13Z"/>
    </g>
  </g>
</svg>