<?xml version="1.0" encoding="UTF-8"?>
<svg id="Camada_2" data-name="Camada 2" xmlns="http://www.w3.org/2000/svg" xmlns:xlink="http://www.w3.org/1999/xlink" viewBox="0 0 216.95 216.95">
  <defs>
    <style>
      .cls-1 {
        fill: url(#Gradiente_sem_nome_83-6);
      }

      .cls-2 {
        fill: url(#Gradiente_sem_nome_83-7);
      }

      .cls-3 {
        fill: url(#Gradiente_sem_nome_83-10);
      }

      .cls-4 {
        fill: url(#Gradiente_sem_nome_83-3);
      }

      .cls-5 {
        fill: url(#Gradiente_sem_nome_83-17);
      }

      .cls-6 {
        fill: url(#Gradiente_sem_nome_83-12);
      }

      .cls-7 {
        fill: url(#Gradiente_sem_nome_83-13);
      }

      .cls-8 {
        fill: url(#Gradiente_sem_nome_83-16);
      }

      .cls-9 {
        fill: url(#Gradiente_sem_nome_83-18);
      }

      .cls-10 {
        fill: url(#Gradiente_sem_nome_83);
      }

      .cls-11 {
        fill: url(#Gradiente_sem_nome_83-2);
      }

      .cls-12 {
        fill: url(#Gradiente_sem_nome_83-9);
      }

      .cls-13 {
        fill: url(#Gradiente_sem_nome_83-4);
      }

      .cls-14 {
        fill: url(#Gradiente_sem_nome_83-15);
      }

      .cls-15 {
        fill: url(#Gradiente_sem_nome_83-8);
      }

      .cls-16 {
        fill: url(#Gradiente_sem_nome_83-14);
      }

      .cls-17 {
        fill: url(#Gradiente_sem_nome_83-11);
      }

      .cls-18 {
        fill: url(#Gradiente_sem_nome_83-5);
      }
    </style>
    <linearGradient id="Gradiente_sem_nome_83" data-name="Gradiente sem nome 83" x1="0" y1="108.47" x2="216.95" y2="108.47" gradientUnits="userSpaceOnUse">
      <stop offset="0" stop-color="#b8a901"/>
      <stop offset="1" stop-color="#daff00"/>
    </linearGradient>
    <linearGradient id="Gradiente_sem_nome_83-2" data-name="Gradiente sem nome 83" x1="65.79" y1="101.59" x2="135.3" y2="101.59" xlink:href="#Gradiente_sem_nome_83"/>
    <linearGradient id="Gradiente_sem_nome_83-3" data-name="Gradiente sem nome 83" x1="45.7" y1="153.57" x2="150.76" y2="153.57" xlink:href="#Gradiente_sem_nome_83"/>
    <linearGradient id="Gradiente_sem_nome_83-4" data-name="Gradiente sem nome 83" x1="123.81" y1="63.66" x2="185.86" y2="63.66" xlink:href="#Gradiente_sem_nome_83"/>
    <linearGradient id="Gradiente_sem_nome_83-5" data-name="Gradiente sem nome 83" x1="102.59" y1="143.3" x2="146.41" y2="143.3" xlink:href="#Gradiente_sem_nome_83"/>
    <linearGradient id="Gradiente_sem_nome_83-6" data-name="Gradiente sem nome 83" x1="27.2" y1="171.02" x2="78.3" y2="171.02" xlink:href="#Gradiente_sem_nome_83"/>
    <linearGradient id="Gradiente_sem_nome_83-7" data-name="Gradiente sem nome 83" x1="192.75" y1="106.13" x2="207.19" y2="106.13" xlink:href="#Gradiente_sem_nome_83"/>
    <linearGradient id="Gradiente_sem_nome_83-8" data-name="Gradiente sem nome 83" x1="94.88" y1="38.07" x2="118.79" y2="38.07" xlink:href="#Gradiente_sem_nome_83"/>
    <linearGradient id="Gradiente_sem_nome_83-9" data-name="Gradiente sem nome 83" x1="150.78" y1="116.34" x2="173.2" y2="116.34" xlink:href="#Gradiente_sem_nome_83"/>
    <linearGradient id="Gradiente_sem_nome_83-10" data-name="Gradiente sem nome 83" x1="48.5" y1="184.36" x2="103.1" y2="184.36" xlink:href="#Gradiente_sem_nome_83"/>
    <linearGradient id="Gradiente_sem_nome_83-11" data-name="Gradiente sem nome 83" x1="120.95" y1="19.29" x2="163.76" y2="19.29" xlink:href="#Gradiente_sem_nome_83"/>
    <linearGradient id="Gradiente_sem_nome_83-12" data-name="Gradiente sem nome 83" x1="113.76" y1="185.32" x2="159.84" y2="185.32" xlink:href="#Gradiente_sem_nome_83"/>
    <linearGradient id="Gradiente_sem_nome_83-13" data-name="Gradiente sem nome 83" x1="69.42" y1="13.02" x2="103.39" y2="13.02" xlink:href="#Gradiente_sem_nome_83"/>
    <linearGradient id="Gradiente_sem_nome_83-14" data-name="Gradiente sem nome 83" x1="171.11" y1="92.42" x2="185.75" y2="92.42" xlink:href="#Gradiente_sem_nome_83"/>
    <linearGradient id="Gradiente_sem_nome_83-15" data-name="Gradiente sem nome 83" x1="133.15" y1="178.57" x2="170.08" y2="178.57" xlink:href="#Gradiente_sem_nome_83"/>
    <linearGradient id="Gradiente_sem_nome_83-16" data-name="Gradiente sem nome 83" x1="154.14" y1="172.56" x2="176.26" y2="172.56" xlink:href="#Gradiente_sem_nome_83"/>
    <linearGradient id="Gradiente_sem_nome_83-17" data-name="Gradiente sem nome 83" x1="158.49" y1="166.32" x2="176.68" y2="166.32" gradientTransform="translate(.66 -.66) rotate(.23)" xlink:href="#Gradiente_sem_nome_83"/>
    <linearGradient id="Gradiente_sem_nome_83-18" data-name="Gradiente sem nome 83" x1="75.21" y1="89.81" x2="88.98" y2="89.81" xlink:href="#Gradiente_sem_nome_83"/>
  </defs>
  <g id="Camada_1-2" data-name="Camada 1">
    <g>
      <path class="cls-10" d="M216.95,108.47c0,59.91-48.57,108.47-108.47,108.47S0,168.38,0,108.47,48.57,0,108.47,0s108.47,48.57,108.47,108.47ZM14.42,148.25c3.39,26.68,65.43,87.71,138.14,53.12,29.46-14.01,51.58-43.06,56.63-77.97,2.82-19.5.09-38.29-7.93-56.79C185.98,31.38,151.93,7.91,113.34,5.24c-29.82-2.06-57.5,10.51-78.32,31.42-2.74,2.75-2.76,5.27-4.58,8.22C4.15,87.58,7.94,97.21,12.9,136.26l1.52,11.98Z"/>
      <path class="cls-11" d="M90.08,89.29c-4.42-3.65-12.6-4.73-15.85.43-2.05,3.25-4.08,20.48,3.1,20.78-2.61-4.06-4.03-9.65-.16-12.7,2.75-2.17,6.41-.56,7.99,1.32,5.76,6.85-4.18,12.84,4.79,14.31-4.48,5.29-14.33,3.96-17.86-2.28-2.14-3.77-1.86-8.26-2.35-12.45-.87-7.33,3.04-13.65,9.76-16.53,3.55-1.52,6.52-4.39,9.97-5.66,5.85-2.15,11.13-5.84,17.06-6.7,4.22-.62,7.37-.73,11.33-3.39,2.77-1.87,7.31,1.3,8.98,3.89,4.44,6.88,6.92,14.36,8.43,22.43.36,1.91-1.62,3.59-3.23,4.12-8.54,2.79-13,11.21-11.1,19.98,2.78,12.83,5.84,6.31,6.59,11.45,1.18,8.02-23.63,8.86-29.36,8.96-6.17.11-32.6.89-32.37-6.99.2-6.7,6.69-6.24,7.67-7.87.89-1.47.3-3.83,1.03-6.71,4.41,3.5,9.72,4.24,14.95,1.68,4.31-2.11,7.65-6.89,7.38-12.64s-1.9-11.44-6.75-15.44ZM110.11,87.63c1.88-1.25.65-2.78.77-4.32.1-1.26-2.17-2.5-3.26-1.04s1.58,3.9,2.49,5.36ZM107.19,126.54c-11.86-.87-21.61-.66-32.7-.81,10.96,4.01,22.64,4.02,32.7.81Z"/>
      <path class="cls-4" d="M49.08,154.38c15.5,15.2,82.45,14.95,98.95-.47,2.61,2.46,2.91,5.09,2.64,8.02-1.28,13.73-77.43,19.77-102.07,4.22-2.7-1.7-2.54-4.5-2.85-6.95-.37-2.9,1.69-4.6,3.81-6.68-1.43-9.2,3.45-18.96,13.12-20.73.86,3.33,3.14,4.93,5.93,5.77l8.55,2.58c-2.36,2.08-4.77.17-6.82.8-3.76,1.15-6.91,2.91-11.22,2.22-1.01-.16-3.21.45-3.12.98l.49,2.95c.07.4-2.37-.52-3.18-.53-3.76-.03.78,6.13-4.23,7.82Z"/>
      <path class="cls-13" d="M137.42,88.55c-2.48-7.69-3.67-14.79-8.4-20.62-1.23-1.52-3.88-1.01-5.21-3.74,15.68-8.79,31.08-17.1,47.21-24.25,4.41-1.96,7.22-1.54,10.13,1.89,3.23,3.8,5.32,7.63,4.55,13.26-.53,3.85-4.4,7.79-8.79,10.36l-39.48,23.11ZM177.26,62.23c8.82-4.79.79-18.69-2.92-19.34-2.03-.35-6.89.28-6.12,2.37l4.68,12.7c.66,1.8,1.91,5.61,4.37,4.27ZM152.79,74.94l17.57-13.09c2.26-1.68-1.48-12.48-3.94-14.06-3.36-2.17-25.89,11.98-31.98,14.75,5.62,4.83,7.59,10.22,9.49,17.09,3.05-1.4,6.11-2.65,8.85-4.69Z"/>
      <path class="cls-18" d="M121.57,151.45c7.4-7.74-13.72-2.97-18.98-9.85l16.84-3.37c4.39-.88,8.31-3.83,11.48-5.75,10.44.69,18.15,12.06,14.65,21.64-2.86-2.65-.23-6.51-2.94-9.7-6.13,4.15-13.59,7.51-21.05,7.03Z"/>
      <path class="cls-1" d="M78.3,180.32c-11.63.58-23.02-.23-35,1.44-6.43-5.36-11.19-11.06-16.1-18.46,5.04-1.81,10.33-3.26,15.77-2.97.67,2.77-1.49,5.29-.63,7.35,3,8.59,27.44,10.68,35.96,12.64Z"/>
      <path class="cls-2" d="M195.05,153.33c8.91-26.64,13.39-46.88,4-74.44-1.26-6.93-6.41-12.05-6.29-19.96,15.3,23.86,18.65,53.36,9.02,79.97-1.86,5.14-2.07,10.49-6.72,14.43Z"/>
      <path class="cls-15" d="M106.77,52.54c-1.91-7.97-.84-10.96-11.89-14.09,7.95-1.43,11.49-7.65,11.93-14.84,1.28,7.92,4.32,13.7,11.98,15.12-6.73.56-10.8,5.64-12.02,13.81Z"/>
      <path class="cls-12" d="M163.26,127.39c-1.77-5.92-5.51-9.23-12.49-10.44,6.99-1.08,10.85-4.38,11.88-11.64,1.75,5.94,4.15,10.58,10.54,11.42-5.33,1.57-8.19,4.27-9.94,10.66Z"/>
      <path class="cls-3" d="M98.67,185.24l-48.37.67c-1.22.02-1.59-.96-1.79-1.71-.81-2.93,48.81-.31,54.59-.39-.41,2.6-2.1,1.4-4.43,1.43Z"/>
      <path class="cls-17" d="M120.95,11.62c6.83-3.46,37.59,8.36,42.82,15.94-13.71-6.92-27.09-12.66-42.82-15.94Z"/>
      <path class="cls-6" d="M159.84,184.15c-7.19,3.64-37.05,2.21-46.08,1.4,15.44-2.25,30.34-1.06,46.08-1.4Z"/>
      <path class="cls-7" d="M103.39,9.17c-11.92,2.63-22.86,4.45-33.97,8.02,10.07-6.17,21.9-9.43,33.97-8.02Z"/>
      <path class="cls-16" d="M177.48,98.86c-1.46-1.92-2.72-5.49-6.37-5.73,2.89-2.05,5.26-3.37,6.04-7.16,1.98,3.6,4.08,6.08,8.6,7.24-5.12-.06-4.79,4.77-8.27,5.65Z"/>
      <path class="cls-14" d="M139.66,179.9c-2.51.26-4.46,1.21-6.52-.91l8.95-1.31c9.18-1.34,18.34-1.28,27.98,1.05-10.32,2.45-19.8.08-30.41,1.17Z"/>
      <path class="cls-8" d="M175.37,173.93l-20.71-1.55c-5-2,27.28-1.51,20.71,1.55Z"/>
      <rect class="cls-5" x="158.49" y="165.36" width="18.19" height="1.92" transform="translate(-.65 .66) rotate(-.23)"/>
      <path class="cls-9" d="M88.98,91.43c-4.4-2.04-8.67-1.97-13.77.3,2.89-5.45,9.62-4.66,13.77-.3Z"/>
    </g>
  </g>
</svg>