<?xml version="1.0" encoding="UTF-8"?>
<svg id="Camada_2" data-name="Camada 2" xmlns="http://www.w3.org/2000/svg" xmlns:xlink="http://www.w3.org/1999/xlink" viewBox="0 0 224.88 224.88">
  <defs>
    <style>
      .cls-1 {
        fill: url(#Gradiente_sem_nome_83-6);
      }

      .cls-2 {
        fill: url(#Gradiente_sem_nome_83-7);
      }

      .cls-3 {
        fill: url(#Gradiente_sem_nome_83-20);
      }

      .cls-4 {
        fill: url(#Gradiente_sem_nome_83-10);
      }

      .cls-5 {
        fill: url(#Gradiente_sem_nome_83-3);
      }

      .cls-6 {
        fill: url(#Gradiente_sem_nome_83-17);
      }

      .cls-7 {
        fill: url(#Gradiente_sem_nome_83-12);
      }

      .cls-8 {
        fill: url(#Gradiente_sem_nome_83-13);
      }

      .cls-9 {
        fill: url(#Gradiente_sem_nome_83-16);
      }

      .cls-10 {
        fill: url(#Gradiente_sem_nome_83-18);
      }

      .cls-11 {
        fill: url(#Gradiente_sem_nome_83);
      }

      .cls-12 {
        fill: url(#Gradiente_sem_nome_83-2);
      }

      .cls-13 {
        fill: url(#Gradiente_sem_nome_83-19);
      }

      .cls-14 {
        fill: url(#Gradiente_sem_nome_83-9);
      }

      .cls-15 {
        fill: url(#Gradiente_sem_nome_83-4);
      }

      .cls-16 {
        fill: url(#Gradiente_sem_nome_83-15);
      }

      .cls-17 {
        fill: url(#Gradiente_sem_nome_83-8);
      }

      .cls-18 {
        fill: url(#Gradiente_sem_nome_83-14);
      }

      .cls-19 {
        fill: url(#Gradiente_sem_nome_83-11);
      }

      .cls-20 {
        fill: url(#Gradiente_sem_nome_83-5);
      }
    </style>
    <linearGradient id="Gradiente_sem_nome_83" data-name="Gradiente sem nome 83" x1="0" y1="112.44" x2="224.88" y2="112.44" gradientUnits="userSpaceOnUse">
      <stop offset="0" stop-color="#b8a901"/>
      <stop offset="1" stop-color="#daff00"/>
    </linearGradient>
    <linearGradient id="Gradiente_sem_nome_83-2" data-name="Gradiente sem nome 83" x1="181.52" y1="137.44" x2="185.62" y2="137.44" xlink:href="#Gradiente_sem_nome_83"/>
    <linearGradient id="Gradiente_sem_nome_83-3" data-name="Gradiente sem nome 83" x1="180.54" y1="129.47" x2="196.67" y2="129.47" xlink:href="#Gradiente_sem_nome_83"/>
    <linearGradient id="Gradiente_sem_nome_83-4" data-name="Gradiente sem nome 83" x1="57.04" y1="129.52" x2="70.96" y2="129.52" xlink:href="#Gradiente_sem_nome_83"/>
    <linearGradient id="Gradiente_sem_nome_83-5" data-name="Gradiente sem nome 83" x1="51.9" y1="117.84" x2="199.98" y2="117.84" xlink:href="#Gradiente_sem_nome_83"/>
    <linearGradient id="Gradiente_sem_nome_83-6" data-name="Gradiente sem nome 83" x1="95.63" y1="169.65" x2="156.19" y2="169.65" xlink:href="#Gradiente_sem_nome_83"/>
    <linearGradient id="Gradiente_sem_nome_83-7" data-name="Gradiente sem nome 83" x1="77.01" y1="148.86" x2="174.36" y2="148.86" xlink:href="#Gradiente_sem_nome_83"/>
    <linearGradient id="Gradiente_sem_nome_83-8" data-name="Gradiente sem nome 83" x1="72.25" y1="155.61" x2="200.15" y2="155.61" xlink:href="#Gradiente_sem_nome_83"/>
    <linearGradient id="Gradiente_sem_nome_83-9" data-name="Gradiente sem nome 83" x1="39.75" y1="76.61" x2="81.07" y2="76.61" xlink:href="#Gradiente_sem_nome_83"/>
    <linearGradient id="Gradiente_sem_nome_83-10" data-name="Gradiente sem nome 83" x1="49.56" y1="167.4" x2="87.4" y2="167.4" xlink:href="#Gradiente_sem_nome_83"/>
    <linearGradient id="Gradiente_sem_nome_83-11" data-name="Gradiente sem nome 83" x1="44.56" y1="82.84" x2="75.93" y2="82.84" xlink:href="#Gradiente_sem_nome_83"/>
    <linearGradient id="Gradiente_sem_nome_83-12" data-name="Gradiente sem nome 83" x1="38.58" y1="181.16" x2="54.22" y2="181.16" xlink:href="#Gradiente_sem_nome_83"/>
    <linearGradient id="Gradiente_sem_nome_83-13" data-name="Gradiente sem nome 83" x1="94.78" y1="157.89" x2="156.18" y2="157.89" xlink:href="#Gradiente_sem_nome_83"/>
    <linearGradient id="Gradiente_sem_nome_83-14" data-name="Gradiente sem nome 83" x1="89.31" y1="165.95" x2="94.62" y2="165.95" xlink:href="#Gradiente_sem_nome_83"/>
    <linearGradient id="Gradiente_sem_nome_83-15" data-name="Gradiente sem nome 83" x1="47.26" y1="57.84" x2="50.58" y2="57.84" xlink:href="#Gradiente_sem_nome_83"/>
    <linearGradient id="Gradiente_sem_nome_83-16" data-name="Gradiente sem nome 83" x1="80.16" y1="95.04" x2="89.31" y2="95.04" xlink:href="#Gradiente_sem_nome_83"/>
    <linearGradient id="Gradiente_sem_nome_83-17" data-name="Gradiente sem nome 83" x1="58.01" y1="182.64" x2="69.42" y2="182.64" xlink:href="#Gradiente_sem_nome_83"/>
    <linearGradient id="Gradiente_sem_nome_83-18" data-name="Gradiente sem nome 83" x1="115.47" y1="85.89" x2="128.48" y2="85.89" gradientTransform="translate(.77 -1.08) rotate(.51)" xlink:href="#Gradiente_sem_nome_83"/>
    <linearGradient id="Gradiente_sem_nome_83-19" data-name="Gradiente sem nome 83" x1="171.03" y1="103.76" x2="177.63" y2="103.76" xlink:href="#Gradiente_sem_nome_83"/>
    <linearGradient id="Gradiente_sem_nome_83-20" data-name="Gradiente sem nome 83" x1="64.96" y1="103.84" x2="70.6" y2="103.84" xlink:href="#Gradiente_sem_nome_83"/>
  </defs>
  <g id="Camada_1-2" data-name="Camada 1">
    <g>
      <path class="cls-11" d="M224.88,112.44c0,62.1-50.34,112.44-112.44,112.44S0,174.54,0,112.44,50.34,0,112.44,0s112.44,50.34,112.44,112.44ZM157.18,209.9c17.42-7.42,30.04-20,41.6-33.92,2.57-3.09,8.55-4.03,5.18-10.1,32.22-56.58,8.27-128.94-51.91-154C120.25-1.36,84.47,1.9,55.08,21.33,22.87,42.62,3.6,79.77,5.92,118.58c2.41,40.23,26.96,76.03,63.4,92.35,5.24,2.35,10.37,2.76,15.56,4.59,23.7,8.36,48.69,4.43,72.31-5.62Z"/>
      <path class="cls-12" d="M185.62,138.9c-1.5-.17-2.99-1-4.09-2.93,1.87.89,3.16,1.72,4.09,2.93Z"/>
      <path class="cls-5" d="M196.67,131.93c-1.36.31-2.01,1.62-2.07,2.95-2.16,1.78-4.82,3.74-7.43,2.33-2.13-1.15-1.78-4.28-2.31-6.21-1.77.62-2.86,1.42-4.12,1.03-1.33-3.2,4.43-2.16,6.8-4.63-1.87-1.06-2.33-2.4-1.93-3.82.24-.84.97-1.82,2.38-2.16,3.42-.82,6.6,1.71,6.6,4.97-1.51.51-2.61-.06-3.07,1.3,1.78.46,3.49-.11,4.34,1.16.52.78.31,2.14.81,3.1Z"/>
      <path class="cls-15" d="M65.68,137.85c-2.17.08-4.89-.72-6.99-1.12-1.62-3.18-2.56-6.06-.28-8.49-.78-1.29-1.72-2.54-1.24-3.42.62-1.15,1.48-1.99,2.67-2.7,2.36-1.41,4.57-1.16,6.57.36,1.68,1.28.39,3.49.94,5.4.27.96,4.08,1.26,3.56,2.93-.97,3.13-4.11,4.5-5.23,7.04Z"/>
      <path class="cls-20" d="M185.62,138.9c4.39-.07,7.63-.37,8.98-4.03.67-.06,1.47-.24,1.83-.78.44-.67.23-1.53.24-2.17,3.18-4.03.66-10.39-3.7-12.45-3.88-1.83-7.92-.04-10.54,2.61s-3.94,6.65-1.7,9.94c.84,1.39,0,3.2.79,3.95,1.38,2.41-8.54-4.22-.28-16.68-.69-.85-1.6-1.47-1.7-2.02-.7-3.61,8.24-3.58,14.4.29,7.94,4.99,6.81,13.51,3.61,21.05-2.43,5.7.17,12.66-1.89,18.74-.58,1.71-3.93,2.79-5.54,1.77l-7.22-4.63c-1.65-24.61-20.77-20.18-32.65-25.24-2.33-.99-2.49-2.83-5.99-1.75-5.46,1.68-11.83.07-17.26,1.22-.2-5.06,1.37-21.96-4.74-22.28,3.08,3.22,2.34,22.1.45,22.09-13.61-.04-26.24,2.48-39.33,5.93-6.92,1.83-12.04,5.82-14.36,13.18-1.82.52-3.53-1.4-5.27-.72-3.04,1.19-4.12,5.6-2.73,7.99,1.59-1.81-.18-4.07,1.27-5.37,1.65-1.48,4.35-.48,5.38.71,1.64,1.9,1.31,4.41-.38,6.36-1.34,1.54-2.54,2.52-4.23,2.95-1.9.48-3.39-1.9-5.09-2.18-.83-.14-3.21,2.61-3.41.62l-2.1-20.87c-.74-7.36-1.93-15.7,5.4-20,3.94-2.31,9.96.18,12.97,3.04,3.69,3.5,4.94,9.5,2.19,14.18-.67-5.45,1.12-9.68-3.32-13-3.15-2.35-7.89-3.53-11.81-.82s-5.59,7.24-4.07,12.03c.76,2.4,2.27,3.84,4.86,4.17,1.05,2.75,4.75,3.13,6.99,1.12,3,.4,4.3-2.28,7.13-4.15-1.27,6.64-7.55,6.19-13.79,7.87,5.07,3.11,11.78-.05,14.95-3.97,5.65-6.99,4.29-18.58-3.24-23.25,9.59-2.24,17.47,2.55,24.76,8.69-2.7-6.44-9.33-8.54-15.83-11.74,5.64-3.44,12.3-2.75,19.29-4.68-9.17-1.91-17.22,2.21-26.18,1.87,2.43-8.27,4.2-16.42,7.11-24.7.99-2.81,5.14-4.65,8.2-5.14,21.28-3.4,42.76-3.5,63.99-.05,3.93.64,7.86,2.74,9.36,6.19,3.35,7.74,5.18,15.47,7.24,23.54-4.17,2.19-4.04-16.18-9.69-21.96-7.68-7.85-65.72-7.04-76.81-1.13-3.06,6.16-3.82,13.55-6.12,21.47l13.54-1.28c8.58-.81,16.37-2.65,25.08-2.07,14.68.98,22.55-.6,34.36,3.77,3.58,1.32,9.01,1.26,10.5,5.94.66,2.08-6.32,4.28-2.33,5.5.67.2,1.8.03,2.35-.73,2.93-4.03,10.44-3.62,11.59-2.08,2.81,3.78.34,16.52,11.42,25.27,2.61,2.07,5.92,2.49,8.19.04-2.39-.44-4.57.16-5.13-2.19ZM58.6,140.37c0-.28-.22-.5-.5-.5s-.5.22-.5.5.22.5.5.5.5-.22.5-.5ZM191.71,156.03c2.47-1.75,2.11-4.3.76-6.82-.99-1.85-3.27-3.13-5.22-2.78-1.37.24-3.81,1.44-3.32,3.53,2.65-1.28,4.85-2.18,6.51-.42,1.36,1.45,1.05,3.68,1.27,6.49Z"/>
      <path class="cls-1" d="M119.61,175.78c-8.2-.15-16.11.51-23.98-1.79.92-3.62,1.06-6.62.14-10.26l60.12-.28c.67,3.58.03,6.56.2,10.35-12.03,1.94-23.95,2.21-36.48,1.98ZM113.6,169.87v1h24.5v-1h-24.5Z"/>
      <path class="cls-2" d="M174.16,151.82c-14.82.02-29.51-.83-44.44.78-1.37.15-2.59,2.98-3.66,2.33l-3.5-2.11-45.55-1.83c1.35-2.77,47.17,1.93,45.67-3.28-6.81-.85-35.2.47-38.04-.47-.37-.12-.46-.51-.01-1.55,12.81-.23,25.1.19,37.92-.72,1.3-.09,2.31-2.12,3.47-2.28,1.27-.18,2.22,2.71,3.24,2.7l29.34-.11c3.6-.01,6.44.58,9.85,1.28,1.79.37,4.63-2.23,5.18,1.51-14.25-1.12-27.79-.93-41.89-.53-.9-.25-1.49-.64-1.76-.36-.53.57-.5,1.02-.54,1.4-.11,1.06.88,1.43,2.17,1.42l40.54-.25c.67,0,1.21-1.03,1.78-.6.37.28.62.73.23,2.65Z"/>
      <path class="cls-17" d="M158.82,175.5c-.32-3.54-1.73-19.05,1.39-20.05,1.16-.37,2.06.78,2.31,3.43,3.78-3.81,11.18.9,15.34-5.54,1.55-2.4.81-5.78-1.35-8.51-2.88-3.64-7.81-4.79-12.48-5.54-18.76-3.03-59.98-2.81-78.45.31-3.8.64-7.07,2.11-9.32,5.1-2.79,3.71-3.03,9.87,1.72,12,3.16,1.42,7.27-1.23,10.79.87-3.37,1.99-10.01,2.31-13.61-.22s-3.4-7.81-1.57-11.95c1.29-2.92,4.96-5.95,9.49-6.91,20.02-4.25,64.18-4.49,84.44-.32,4.91,1.01,9.58,3.53,11.44,8.07,1.35,3.29,1.02,6.86-.72,9-5.78,7.15-14.86.09-15.08,4.6-.17,3.52.32,6.82,1.77,10.22,1.57-2.17.29-4.41.85-6.78l32.41-1.93c1.86.6,2.28,4.75,1.75,6.3-.6,1.77-2.15,4.04-4.8,4.62-10.33,2.26-21.68,1.25-32.04,1.76-1.08.05-3.27,3.25-4.27,1.46ZM194.25,168.91c7.1-3.76-13.82.62-11.07.94,3.63,1.51,7.49.72,11.07-.94Z"/>
      <path class="cls-14" d="M42.5,81.85c-.27,9.6,3.39,17.72,9.32,24.6,3.22,3.73,6.39,4.88,11.79,3.82-2.43,1.64-5.04,1.57-6.87,3.28-12.48-7.25-18.3-21.34-16.75-35.72l4.09-37.96,32.33-.18c.61,5.81,7.32,35.68,3.49,37.91l-5.46-35.69-28.55.19c-1.67,13.56-3.01,26.45-3.39,39.75Z"/>
      <path class="cls-4" d="M87.4,163.78c-1.56,3.4-1.45,5.59-.02,9.97-7.67,0-34.09,1.79-37.21-4.98-.99-2.15-1.01-7.73,1.71-7.94l11.74,1.64c8.05,1.12,15.64.05,23.78,1.31ZM52.27,164.97c-.97.47-1.94,1.98-.86,2.84,3.76,3.03,8.5,3.68,12.66,1.99-13.44-1.99-8.4-6.5-11.81-4.83Z"/>
      <path class="cls-19" d="M69.89,76.53c-8.78,5.33-9.06,16.09-10.87,17.18-2.71,1.64-3.75-12.19-8.7-17.84-1.1-1.26-6.46,1.13-5.68-3.35,10.34-1.36,20.83-.33,31.29.09-.92,2.26-3.55,2.42-6.04,3.93Z"/>
      <path class="cls-7" d="M53.94,187.24c-4.33,1.07-15.24-.26-15.36-4.76-.08-3.05,9.06-2.02,14.9-7.75,1.13,4.58.69,8.2.46,12.51Z"/>
      <path class="cls-8" d="M156.18,158.37c-15.38.69-30.14.96-45.49.64-5.25-.11-10.7.7-15.91-1.45l35.8-.7c8.45.99,16.8-1.99,25.6,1.5Z"/>
      <path class="cls-18" d="M94.21,174.33c-.39,1.62-3.95,2.28-4.17,1.09-.43-2.25-2.21-19.77,2.06-19.55,2.05.1,3.18,14.04,2.11,18.46Z"/>
      <path class="cls-16" d="M50.44,45.42c.45,8.82-.18,16.54-2.35,24.84-1.55-8.52-1.02-17.39,2.35-24.84Z"/>
      <path class="cls-9" d="M89.31,86.57c-3.85,1.08-4.21,14.31-9.1,17.59-.45-5.38,2.94-9.2,3.33-14.34.12-1.56.7-3.19,1.73-3.5,1.45-.42,2.91-.72,4.04.25Z"/>
      <path class="cls-6" d="M69.42,188.56c-1.24,1.77-8.16,1.66-9.71-.47-2.44-3.34-1.55-8.71-1.42-12.61,3.25,3.09,1.67,7,3.21,10.32,1.38,2.99,4.43,1.44,7.93,2.75Z"/>
      <rect class="cls-10" x="115.48" y="84.42" width="12.99" height="2.95" transform="translate(-.76 1.08) rotate(-.51)"/>
      <path class="cls-13" d="M176.1,105.94c-1.72,1.78-2.94,1.43-3.67.53-1.21-1.48-1.61-2.69-1.31-3.85.4-1.53,1.82-2.13,3.5-2.29s2.38.5,2.73,1.32c.64,1.52.16,2.83-1.25,4.29Z"/>
      <circle class="cls-3" cx="67.78" cy="103.84" r="2.82"/>
    </g>
  </g>
</svg>