<?xml version="1.0" encoding="UTF-8"?>
<svg id="Camada_2" data-name="Camada 2" xmlns="http://www.w3.org/2000/svg" xmlns:xlink="http://www.w3.org/1999/xlink" viewBox="0 0 213.52 213.58">
  <defs>
    <style>
      .cls-1 {
        fill: url(#Gradiente_sem_nome_83-6);
      }

      .cls-2 {
        fill: url(#Gradiente_sem_nome_83-7);
      }

      .cls-3 {
        fill: url(#Gradiente_sem_nome_83-20);
      }

      .cls-4 {
        fill: url(#Gradiente_sem_nome_83-10);
      }

      .cls-5 {
        fill: url(#Gradiente_sem_nome_83-3);
      }

      .cls-6 {
        fill: url(#Gradiente_sem_nome_83-17);
      }

      .cls-7 {
        fill: url(#Gradiente_sem_nome_83-27);
      }

      .cls-8 {
        fill: url(#Gradiente_sem_nome_83-12);
      }

      .cls-9 {
        fill: url(#Gradiente_sem_nome_83-13);
      }

      .cls-10 {
        fill: url(#Gradiente_sem_nome_83-16);
      }

      .cls-11 {
        fill: url(#Gradiente_sem_nome_83-26);
      }

      .cls-12 {
        fill: url(#Gradiente_sem_nome_83-18);
      }

      .cls-13 {
        fill: url(#Gradiente_sem_nome_83);
      }

      .cls-14 {
        fill: url(#Gradiente_sem_nome_83-2);
      }

      .cls-15 {
        fill: url(#Gradiente_sem_nome_83-19);
      }

      .cls-16 {
        fill: url(#Gradiente_sem_nome_83-9);
      }

      .cls-17 {
        fill: url(#Gradiente_sem_nome_83-21);
      }

      .cls-18 {
        fill: url(#Gradiente_sem_nome_83-25);
      }

      .cls-19 {
        fill: url(#Gradiente_sem_nome_83-4);
      }

      .cls-20 {
        fill: url(#Gradiente_sem_nome_83-15);
      }

      .cls-21 {
        fill: url(#Gradiente_sem_nome_83-23);
      }

      .cls-22 {
        fill: url(#Gradiente_sem_nome_83-8);
      }

      .cls-23 {
        fill: url(#Gradiente_sem_nome_83-24);
      }

      .cls-24 {
        fill: url(#Gradiente_sem_nome_83-14);
      }

      .cls-25 {
        fill: url(#Gradiente_sem_nome_83-11);
      }

      .cls-26 {
        fill: url(#Gradiente_sem_nome_83-5);
      }

      .cls-27 {
        fill: url(#Gradiente_sem_nome_83-22);
      }
    </style>
    <linearGradient id="Gradiente_sem_nome_83" data-name="Gradiente sem nome 83" x1="0" y1="106.79" x2="213.52" y2="106.79" gradientUnits="userSpaceOnUse">
      <stop offset="0" stop-color="#b8a901"/>
      <stop offset="1" stop-color="#daff00"/>
    </linearGradient>
    <linearGradient id="Gradiente_sem_nome_83-2" data-name="Gradiente sem nome 83" x1="48.4" y1="95.2" x2="106.31" y2="95.2" xlink:href="#Gradiente_sem_nome_83"/>
    <linearGradient id="Gradiente_sem_nome_83-3" data-name="Gradiente sem nome 83" x1="8.05" y1="74.05" x2="206.06" y2="74.05" xlink:href="#Gradiente_sem_nome_83"/>
    <linearGradient id="Gradiente_sem_nome_83-4" data-name="Gradiente sem nome 83" x1="105.58" y1="94.44" x2="167.59" y2="94.44" xlink:href="#Gradiente_sem_nome_83"/>
    <linearGradient id="Gradiente_sem_nome_83-5" data-name="Gradiente sem nome 83" x1="42.84" y1="122.76" x2="173.29" y2="122.76" xlink:href="#Gradiente_sem_nome_83"/>
    <linearGradient id="Gradiente_sem_nome_83-6" data-name="Gradiente sem nome 83" x1="71.24" y1="151.15" x2="144.53" y2="151.15" xlink:href="#Gradiente_sem_nome_83"/>
    <linearGradient id="Gradiente_sem_nome_83-7" data-name="Gradiente sem nome 83" x1="40.32" y1="190.98" x2="172.38" y2="190.98" xlink:href="#Gradiente_sem_nome_83"/>
    <linearGradient id="Gradiente_sem_nome_83-8" data-name="Gradiente sem nome 83" x1="20.03" y1="115.41" x2="45.46" y2="115.41" xlink:href="#Gradiente_sem_nome_83"/>
    <linearGradient id="Gradiente_sem_nome_83-9" data-name="Gradiente sem nome 83" x1="170.26" y1="115.53" x2="194.21" y2="115.53" xlink:href="#Gradiente_sem_nome_83"/>
    <linearGradient id="Gradiente_sem_nome_83-10" data-name="Gradiente sem nome 83" x1="17.66" y1="148.49" x2="62.2" y2="148.49" xlink:href="#Gradiente_sem_nome_83"/>
    <linearGradient id="Gradiente_sem_nome_83-11" data-name="Gradiente sem nome 83" x1="154.95" y1="148.18" x2="196.6" y2="148.18" xlink:href="#Gradiente_sem_nome_83"/>
    <linearGradient id="Gradiente_sem_nome_83-12" data-name="Gradiente sem nome 83" x1="54" y1="66.31" x2="128.91" y2="66.31" xlink:href="#Gradiente_sem_nome_83"/>
    <linearGradient id="Gradiente_sem_nome_83-13" data-name="Gradiente sem nome 83" x1="72.39" y1="137.66" x2="144.39" y2="137.66" xlink:href="#Gradiente_sem_nome_83"/>
    <linearGradient id="Gradiente_sem_nome_83-14" data-name="Gradiente sem nome 83" x1="63.32" y1="145.55" x2="68.99" y2="145.55" xlink:href="#Gradiente_sem_nome_83"/>
    <linearGradient id="Gradiente_sem_nome_83-15" data-name="Gradiente sem nome 83" x1="146.94" y1="146.36" x2="152.92" y2="146.36" xlink:href="#Gradiente_sem_nome_83"/>
    <linearGradient id="Gradiente_sem_nome_83-16" data-name="Gradiente sem nome 83" x1="27.08" y1="165.42" x2="39.92" y2="165.42" xlink:href="#Gradiente_sem_nome_83"/>
    <linearGradient id="Gradiente_sem_nome_83-17" data-name="Gradiente sem nome 83" x1="98.08" y1="59.28" x2="112.9" y2="59.28" xlink:href="#Gradiente_sem_nome_83"/>
    <linearGradient id="Gradiente_sem_nome_83-18" data-name="Gradiente sem nome 83" x1="149.84" y1="71.17" x2="158.37" y2="71.17" xlink:href="#Gradiente_sem_nome_83"/>
    <linearGradient id="Gradiente_sem_nome_83-19" data-name="Gradiente sem nome 83" x1="42.05" y1="77.98" x2="49.24" y2="77.98" xlink:href="#Gradiente_sem_nome_83"/>
    <linearGradient id="Gradiente_sem_nome_83-20" data-name="Gradiente sem nome 83" x1="160.96" y1="78.25" x2="167.26" y2="78.25" xlink:href="#Gradiente_sem_nome_83"/>
    <linearGradient id="Gradiente_sem_nome_83-21" data-name="Gradiente sem nome 83" x1="174.75" y1="166.33" x2="186.33" y2="166.33" xlink:href="#Gradiente_sem_nome_83"/>
    <linearGradient id="Gradiente_sem_nome_83-22" data-name="Gradiente sem nome 83" x1="61.76" y1="67.06" x2="67.28" y2="67.06" xlink:href="#Gradiente_sem_nome_83"/>
    <linearGradient id="Gradiente_sem_nome_83-23" data-name="Gradiente sem nome 83" x1="44.47" y1="135.85" x2="60.97" y2="135.85" xlink:href="#Gradiente_sem_nome_83"/>
    <linearGradient id="Gradiente_sem_nome_83-24" data-name="Gradiente sem nome 83" x1="142.19" y1="56.41" x2="149.09" y2="56.41" gradientTransform="translate(153.1 -99.59) rotate(71.57)" xlink:href="#Gradiente_sem_nome_83"/>
    <linearGradient id="Gradiente_sem_nome_83-25" data-name="Gradiente sem nome 83" x1="60.25" y1="76.16" x2="61.52" y2="76.16" xlink:href="#Gradiente_sem_nome_83"/>
    <linearGradient id="Gradiente_sem_nome_83-26" data-name="Gradiente sem nome 83" x1="170.25" y1="172.16" x2="171.52" y2="172.16" xlink:href="#Gradiente_sem_nome_83"/>
    <linearGradient id="Gradiente_sem_nome_83-27" data-name="Gradiente sem nome 83" x1="26.43" y1="105.3" x2="40.08" y2="105.3" xlink:href="#Gradiente_sem_nome_83"/>
  </defs>
  <g id="Camada_1-2" data-name="Camada 1">
    <g>
      <path class="cls-13" d="M203.04,138.81c19.31-54.78-12.47-113.77-68.82-130.38C76.08-8.71,14.76,32.25,5.86,93.76c-2.04,14.06.1,27.32,3.16,41.31.64,2.92,3.81,5.69,3.06,8.99-.85,3.75-.94,7.4,2.48,9.98,4,3.03,13.73,15.04,11.28,20.81-9.2-9.7-15.12-21.48-19.73-34.07-8.4-22.88-7.97-46.18.27-68.88C21.17,31.08,57.5,2.96,101.25.2c29.29-1.85,57.45,9.33,78.73,29.26,36.29,34,43.89,87.67,19.09,130.88-17.23,30.02-47.77,49.59-82.8,52.81-33.52,3.08-66.44-10.29-88.87-36.07,1.9-.72,5.46-.71,7.14.92,41.57,40.34,104.37,41.27,144.67-.02,6.37-6.52,10.57-13.85,15.89-20.96,2.72-3.64,8.93-5.13,6.18-12.27-.68-1.78,1.09-4.04,1.76-5.94Z"/>
      <path class="cls-14" d="M48.62,112.98c-.69-7.04.36-12.14,1.43-18.19,1.66-.84,3.04-.27,4.64-.32,1.3-2.85,3.39-3.71,6.16-2.89,4.7,1.4,6.22,5.42,10,9.15.15-7.37-6.48-10.47-12.4-14.26,6.78-4.11,14.1-3.14,20.84-5.23,8.12-2.51,16.07-4.72,24.76-3.46,3.36,7.84,2.45,16.16.66,24.82-9.77-.71-18.68,2.3-28.35,3.15-3.03.27-4.87.3-7.67,1.38-6.29,2.42-12.83,2.35-20.06,5.84Z"/>
      <path class="cls-5" d="M196.05,71.23c-4.89-10.62-10.51-19.71-17.71-27.6C142.07,3.88,82.71.56,42.46,36.67,21.9,55.12,10.23,82.87,10.89,111.07c.18,7.5,2.55,13.77,2.24,21.21-6.72-15.1-5.93-31.57-2.46-47.69,3.94-18.3,12.62-33.32,25.86-46.43C58.79,16.11,89.5,3.82,121.24,8.73c60.59,9.38,100.75,72.64,78.71,131.71-2.77-1.47-1.27-3.79-.82-5.83,2.27-10.41,4.96-20.39,3.97-31.03s-2.29-22.03-7.04-32.36Z"/>
      <path class="cls-19" d="M155.86,97.03c2.5-1.49,3.99-4.4,7.64-4.9.97,6.73,2.12,12.46,4.09,19.29-18.92-4.18-37.47-8.73-56.38-8.96-4.09-10.02.09-19.55-5.64-24.98,10-.23,36.78,2.44,43.56,9.33-3.11,3.32-7.21,4.21-7.99,9.19,4.82-2.33,8.72-4.89,13.79-3.36.27,1.09-.21,2.31.92,4.39ZM141.25,97.16c0-.48-.39-.86-.86-.86s-.86.39-.86.86.39.86.86.86.86-.39.86-.86Z"/>
      <path class="cls-26" d="M101.9,121.85c3.15.03,4.85-1.04,5.91-3.72l4.85,4.96c1.4.15,2.37-1.58,3.78-1.55l32.13.64c4.96.1,10.42-.3,15.5,2.24l-32.06-.04-12.66-.32c-3.2-.08-6.64.53-8.32,3.75,2.96,1.57,5.9,1.01,8.27-.1-.18-1.17-.83-1.71.19-2.5-1.36,6.92,40.14.75,44.24,4.11-14.44,3.46-28.51,3.43-41.94,2.08l-7.45-.75c-2.78-.28-4.36,3.15-7.27,4.15-.98-2.6-2.68-3.88-5.63-3.9l-46.02-.3c-3.85-.03-8.16-2.39-11.83,1.66-1.68-4.71-.52-9.79,3.29-13.6,4.66-4.66,11.07-5.17,17.09-6.88,23.65-6.71,58.56-6.72,82.34-1.33,7.38,1.67,14.66,2.44,20.74,7.02,6.81,5.13,9.15,17.04,1.29,21.25-3.4.81-9.41-1.53-13.45.27,3.79-4.31,9.14-1.41,13.27-3.2,3.33-1.44,4.15-7.17,2.87-10.26-1.96-4.78-5.74-8.05-10.51-9.6-17.96-5.85-36.2-6.41-54.86-6.66-15.72-.21-30.44,1.65-45.71,5.14-7.56,1.73-14.02,5.65-15.91,14.16l60.93.03c.65-1.83.25-4.02-.29-5.95-1.31.14-1.6,1.52-2.16,1.76s-1.37.03-2.26-.22c-5.12-1.44-9.98,0-14.9-.02-6.7-.02-13.16-.53-20,.55-2.85.45-5.58-.61-8.08-.58,10.51-3.8,4.14-1.76,18.25-2.17l9.52-.28,16.83.16Z"/>
      <path class="cls-1" d="M143.77,155.01c-12.11,3.82-48.19,5.25-60.36,1.96-3.88-1.05-7.96.81-12.07-1.21,4.37-2.55,8.86-.17,13.84-.67.13-1.88-.42-3.72-.14-5.41-4.4.63-8.14.62-12.79.63-.53-1.95-.88-3.81-1-6.67,24.19.32,48.39.9,72.67-.17.6,1.43,1.08,5.03-.19,5.68-4.16,2.13-12.58.29-12.81,3.48-.35,5.04,9.42.2,12.85,2.38ZM122.17,153.46c.29-1.15-.39-2.4-.93-2.92-.73-.7-2.35-.16-3.46,0-9.02,1.23-28.41-.94-28.36,2.12s32.1,3.43,32.75.8Z"/>
      <path class="cls-2" d="M165.26,180.78c2.49-1.98,3.85-3.8,7.12-2.12-34.85,35.55-95.98,34.04-132.06-.44,1.76-1.73,3.95-.86,5.6.52,34.31,28.66,84.03,30.09,119.34,2.04Z"/>
      <path class="cls-22" d="M38.21,125.91c-3.16.31-5.41-1.26-7.7.93-1.46,1.4-2.31,4.08-.47,6.31-.74-2.94,1.17-5.78,3.86-5.97s4.87,1.74,4.91,4.44c.05,3.33-2.63,4.57-6.68,4.49,1.68,3.29,4.25.09,6.09.86-2.94,4-10.84,3.91-13.07.81-3.52-4.88.31-16.16-3.48-24.76-2.79-6.31-2.16-14.42,3.15-19.16,4.63-4.13,12.57-4.6,15.82,1.72-7.3-2.85-14.05-2.58-17.32,3.79s-.57,12.85,6.23,15.78c5.54,2.39,10.64-.56,13.31-5.22,3.06-5.34,1.12-9.7-2.8-14.74,6.09,2.64,6.28,10.12,4.22,15.29-2.85,7.17-10.7,8.67-17.96,5.42,3.25,5.04,8.78,4.82,14.67,3.24.87,1.47-.47,6.57-2.78,6.79Z"/>
      <path class="cls-16" d="M177.28,130.68c.46-2.87,2.54-4.24,4.58-4.34,2.13-.1,3.42,1.42,5.11,3.88,1.17-2.1-1.18-4.71-2.71-5.75-2.28-1.56-5.55-.43-6.9,2.76-2.26-2.36-3-4.97-2.94-7.93,4.52.49,8.83,1.73,12.24-1.75-8.56.43-14.28-1.52-16.08-10.38-1.4-6.89,1.94-11.95,8.14-14.43,4.99-1.99,9.47-1.05,12.55,3.32,4.26,6.04,3.33,12.03.81,18.55-2.22,5.75,1.13,21.04-3.01,23.75-1.84,1.2-4.5,1.19-6.71.39,1.41-1.42,3.96-1.73,3.71-4.36-1.83,1.53-3.46,2.36-5.21,2.03-2.55-.47-4.11-2.39-3.58-5.73ZM183.85,113.75c-2.44.57-4.52-.46-5.09-1.55-.69-1.32-.2-2.98-.56-5.15-1.77.36-2.61,2.01-4.38,3.17,2.35,4.9,7.29,6.51,12.21,4.35,3.35-1.47,5.49-4.65,6.04-7.28.82-3.89,0-7.46-2.45-10.37-4.28-5.09-11.44-3.8-15.43,1.03-3.06,3.71-3.83,8.25-.21,11.94,1.42-2.57-.2-4.27,1.32-5.15.9-.52,1.94-.84,3.54-1.43-.14-.94-1.69-1.64-1.48-2.97.38-2.46,2.51-3.99,4.58-4.07,1.56-.06,4.92.69,5.05,2.77.07,1.22-2.5,2.07-1.29,3.28.63.62,2.04,1.14,2.68,2.17,1.89,3-.79,8.4-4.52,9.28ZM188.39,116.66c0-.28-.22-.5-.5-.5s-.5.22-.5.5.22.5.5.5.5-.22.5-.5Z"/>
      <path class="cls-4" d="M19.76,146.17c-.29,10.64,36.78,5.76,42.44,9.16-11.53,1.19-22.32.09-33.42-.76-4.91-.38-9.53-3.02-10.93-7.5-.64-2.05.46-3.54,1.29-4.8,1.22-1.86,3.07-1.01,5.39-.64,11.71,1.86,23.89,1.03,35.76,1.88,1.22,1.65.61,4.36-.1,6.71l-25.94-.88c-4.97-.17-9.25-1.31-14.5-3.16Z"/>
      <path class="cls-25" d="M155.42,154.48l30.2-1.81c3.37-.2,7.21-.91,8.83-5.3-12.59,1.46-25.09,3.32-38.23,2.37-1.55-.11-1.6-5.32-.53-6.28l33.47-1.46c1.68-.07,3.44-1.57,4.9-.59,2.29,1.53,3.08,4.26,2.19,6.96-.56,1.68-2.22,4.14-4.81,4.72l-9.27,2.1c-9.06-.75-17.69,1.05-26.74-.71Z"/>
      <path class="cls-8" d="M62.93,58.32l-8.93,25.49c.32-9.28,4.22-17.24,6.45-25.86,2.68-10.36,50.35-9.21,59.94-8.96,3.61.09,7.15.34,8.52,4.74-17.63.01-50.36-2.87-65.98,4.6Z"/>
      <rect class="cls-9" x="72.39" y="136.16" width="72" height="3"/>
      <path class="cls-24" d="M68.19,158.13c-.17,1.27-2.13.35-2.73.1-3.34-1.39-2.72-22.46,1.35-25.91,2.71,8.58,2.55,17.22,1.38,25.81Z"/>
      <path class="cls-20" d="M150.72,134.52c.8.28,4.97,23.9-.85,23.86-1.34-.01-3-1.17-2.87-3.2.54-8.16-1.82-22.61,3.72-20.65Z"/>
      <path class="cls-10" d="M39.92,171.9c-3.55,7.26-15.17-10.79-12.43-14.68l12.43,14.68Z"/>
      <path class="cls-6" d="M112.9,59.57c-.82,1.4-14.58,3.05-14.81-.84-.1-1.72,13.85-2.09,14.81.84Z"/>
      <path class="cls-12" d="M149.84,58.92c2.14,1.24,8.99,24.09,8.5,24.38-.3.18-1.74.23-1.9-.38l-6.6-24Z"/>
      <path class="cls-15" d="M46.01,81.43c-2.15-1.01-3.65-2.18-3.91-3.58-.4-2.18,1.55-3.17,2.87-3.39,1.94-.32,4.2,1.3,4.27,2.99.05,1.4-1.76,4.67-3.23,3.98Z"/>
      <path class="cls-3" d="M167.25,77.65c-.14,2.06-2.73,4.84-4.12,4.25-1.83-.78-2.21-3.03-2.17-4.11.04-1.29,1.02-2.81,2.27-3.15,1.68-.45,4.21.33,4.03,3.01Z"/>
      <path class="cls-17" d="M174.75,173.47c-.08-4.53,4.4-5.57,6.41-8.45,2.22-1.76,2.72-4.42,5.17-5.84-2.21,5.71-5.62,10.77-11.58,14.29Z"/>
      <path class="cls-27" d="M67.28,60.25l-5.44,14.05c-.46-4.85,1.2-8.95,2.68-13.2.29-1.03,1.91-1.77,2.75-.85Z"/>
      <path class="cls-21" d="M60.97,137.48c-3.97,1.45-7.47.56-11.49,1.58-2.41-1.5-4.93-2.86-5.01-6.44,2.57,2.37,4.35,4.62,7.93,3.81,2.69.62,5.56-1.89,8.57,1.05Z"/>
      <rect class="cls-23" x="144.69" y="53.09" width="1.9" height="6.64" transform="translate(46.07 176.73) rotate(-71.57)"/>
      <circle class="cls-18" cx="60.89" cy="76.16" r=".63"/>
      <circle class="cls-11" cx="170.89" cy="172.16" r=".63"/>
      <path class="cls-7" d="M39.19,106.24c2.52,2.58-.96,5.44-2.62,6.8-2.32,1.91-5.68,1.2-7.56-.97-1.51-1.74-3.4-4.99-1.1-7.19.81-.78,1.89-1.32,1.87-2.24-.02-1.49-1.42-1.33-3.34-1.95,2.34-.47,3.31-2.96,5.8-3.99,2.88-1.19,6.74,2.21,6.69,5.13-.02,1.03-2.07,1.43-2.11,2-.05.67,1.43,1.43,2.38,2.41Z"/>
    </g>
  </g>
</svg>