<?xml version="1.0" encoding="UTF-8"?>
<svg id="Camada_2" data-name="Camada 2" xmlns="http://www.w3.org/2000/svg" xmlns:xlink="http://www.w3.org/1999/xlink" viewBox="0 0 199.44 224.78">
  <defs>
    <style>
      .cls-1 {
        fill: url(#Gradiente_sem_nome_83-6);
      }

      .cls-2 {
        fill: url(#Gradiente_sem_nome_83-7);
      }

      .cls-3 {
        fill: url(#Gradiente_sem_nome_83-10);
      }

      .cls-4 {
        fill: url(#Gradiente_sem_nome_83-3);
      }

      .cls-5 {
        fill: url(#Gradiente_sem_nome_83-17);
      }

      .cls-6 {
        fill: url(#Gradiente_sem_nome_83-12);
      }

      .cls-7 {
        fill: url(#Gradiente_sem_nome_83-13);
      }

      .cls-8 {
        fill: url(#Gradiente_sem_nome_83-16);
      }

      .cls-9 {
        fill: url(#Gradiente_sem_nome_83);
      }

      .cls-10 {
        fill: url(#Gradiente_sem_nome_83-2);
      }

      .cls-11 {
        fill: url(#Gradiente_sem_nome_83-9);
      }

      .cls-12 {
        fill: url(#Gradiente_sem_nome_83-4);
      }

      .cls-13 {
        fill: url(#Gradiente_sem_nome_83-15);
      }

      .cls-14 {
        fill: url(#Gradiente_sem_nome_83-8);
      }

      .cls-15 {
        fill: url(#Gradiente_sem_nome_83-14);
      }

      .cls-16 {
        fill: url(#Gradiente_sem_nome_83-11);
      }

      .cls-17 {
        fill: url(#Gradiente_sem_nome_83-5);
      }
    </style>
    <linearGradient id="Gradiente_sem_nome_83" data-name="Gradiente sem nome 83" x1="0" y1="112.39" x2="199.44" y2="112.39" gradientUnits="userSpaceOnUse">
      <stop offset="0" stop-color="#b8a901"/>
      <stop offset="1" stop-color="#daff00"/>
    </linearGradient>
    <linearGradient id="Gradiente_sem_nome_83-2" data-name="Gradiente sem nome 83" x1="76.91" y1="94.82" x2="118.08" y2="94.82" xlink:href="#Gradiente_sem_nome_83"/>
    <linearGradient id="Gradiente_sem_nome_83-3" data-name="Gradiente sem nome 83" x1="101.59" y1="45.97" x2="145.09" y2="45.97" xlink:href="#Gradiente_sem_nome_83"/>
    <linearGradient id="Gradiente_sem_nome_83-4" data-name="Gradiente sem nome 83" x1="32.69" y1="160.47" x2="112.1" y2="160.47" xlink:href="#Gradiente_sem_nome_83"/>
    <linearGradient id="Gradiente_sem_nome_83-5" data-name="Gradiente sem nome 83" x1="114.82" y1="99.28" x2="138.46" y2="99.28" xlink:href="#Gradiente_sem_nome_83"/>
    <linearGradient id="Gradiente_sem_nome_83-6" data-name="Gradiente sem nome 83" x1="104.33" y1="97.17" x2="127.74" y2="97.17" xlink:href="#Gradiente_sem_nome_83"/>
    <linearGradient id="Gradiente_sem_nome_83-7" data-name="Gradiente sem nome 83" x1="127.2" y1="124.36" x2="157.91" y2="124.36" xlink:href="#Gradiente_sem_nome_83"/>
    <linearGradient id="Gradiente_sem_nome_83-8" data-name="Gradiente sem nome 83" x1="48.9" y1="139.58" x2="103" y2="139.58" xlink:href="#Gradiente_sem_nome_83"/>
    <linearGradient id="Gradiente_sem_nome_83-9" data-name="Gradiente sem nome 83" x1="34.89" y1="130.05" x2="72.11" y2="130.05" xlink:href="#Gradiente_sem_nome_83"/>
    <linearGradient id="Gradiente_sem_nome_83-10" data-name="Gradiente sem nome 83" x1="50.04" y1="18.27" x2="128.21" y2="18.27" xlink:href="#Gradiente_sem_nome_83"/>
    <linearGradient id="Gradiente_sem_nome_83-11" data-name="Gradiente sem nome 83" x1="187.68" y1="74.84" x2="191.13" y2="74.84" xlink:href="#Gradiente_sem_nome_83"/>
    <linearGradient id="Gradiente_sem_nome_83-12" data-name="Gradiente sem nome 83" x1="144.2" y1="46.28" x2="153.56" y2="46.28" xlink:href="#Gradiente_sem_nome_83"/>
    <linearGradient id="Gradiente_sem_nome_83-13" data-name="Gradiente sem nome 83" x1="107.88" y1="173.46" x2="130.8" y2="173.46" xlink:href="#Gradiente_sem_nome_83"/>
    <linearGradient id="Gradiente_sem_nome_83-14" data-name="Gradiente sem nome 83" x1="126.67" y1="117.42" x2="133.79" y2="117.42" xlink:href="#Gradiente_sem_nome_83"/>
    <linearGradient id="Gradiente_sem_nome_83-15" data-name="Gradiente sem nome 83" x1="137.64" y1="117.67" x2="142.69" y2="117.67" xlink:href="#Gradiente_sem_nome_83"/>
    <linearGradient id="Gradiente_sem_nome_83-16" data-name="Gradiente sem nome 83" x1="103.22" y1="150.17" x2="133.69" y2="150.17" xlink:href="#Gradiente_sem_nome_83"/>
    <linearGradient id="Gradiente_sem_nome_83-17" data-name="Gradiente sem nome 83" x1="187.8" y1="105.35" x2="189.07" y2="105.35" xlink:href="#Gradiente_sem_nome_83"/>
  </defs>
  <g id="Camada_1-2" data-name="Camada 1">
    <g>
      <path class="cls-9" d="M100.45,224.78c-20-6.04-37.73-14.08-53.91-26.12C20.33,179.18,3.32,150.35,2.34,117.31L0,38.22l15.58-1.82c10.98-1.28,28.3-8.72,29.16-22.5,19.12-2.86,37.12-7.55,55.59-13.9,17.71,6.03,35.53,10.43,54.5,13.64,2.88,20.19,27.67,23.47,44.61,24.42l-2.08,70.44c-1.85,62.62-38.25,98.23-96.91,116.27ZM101.15,219.17c59.41-20.24,89.46-55.59,91.33-117.78l1.77-58.85c-16.09-.55-39.58-6.62-43.35-24.24-17.64-2.9-33.92-7.51-50.76-12.63-17.24,5.53-33.46,9.94-51.35,12.65-6.17,18.19-26.17,23.24-44.01,23.92l1.78,59.1c.84,27.72,4.22,49.05,21.51,72.13,15.66,20.9,47.03,38.67,73.07,45.7Z"/>
      <path class="cls-10" d="M102.93,74.81c-4.1,10.64-5.95,20.95-8.91,31.49-1.83,6.5-2.24,12.53-2.62,19.49-3.12-5.19-.17-10.11-.9-15.61-2.87,4.29-2.39,9.54-2.68,14.97-4.24.76-7.87-2.91-9.44-7.19-3.63-9.93-.15-21.25,6.06-29.47,1.94,3.24-2.11,4.54-1.22,8.18l10.54-12.63c4.5-5.39,6.09-21.91,11.65-21.87,3.24.03,5.19,1.05,5.89,4.29,1.17-1.9,1.41-2.94,2.25-3.08.99-.16,4.69-.45,4.52.88-1.41,11.31-17.51,45.78-16,63.21-2.38-.15-5.79-.41-7.19-1.85-3.15-10.26,3.99-22.68,4.7-33.34,1.16-5.8,5.03-10.87,3.35-17.48Z"/>
      <path class="cls-4" d="M138.17,59.17c-4.97-7-.33-15.37-1.63-20.89-2.98,6.23-3.37,12.73-1.42,20.83-2.69-.49-4.97-1.65-7.9-1.97l-18.31-1.96c-3.21-.34-6.15.39-7.02-4.36-1.06-5.77.65-17.08,7.46-19.25s31.91,2.14,32.37,2.48c2.49,1.83-1.71,17.97,3.38,26.89-2.6.12-5.55.15-6.92-1.77Z"/>
      <path class="cls-12" d="M38.29,164.72c-1.57-8.54-5.71-15.42-5.6-23.9,5.91,8.09,6.15,19.08,10.65,25.26l46.84,14.03c-1.98-7.95-3.12-14.2-2.36-21.61-5-.36-45.21-12.11-45.36-12.24-.91-.78-1.46-1.95-.92-3.71l45.8,12.73c1.51-4.4,2.47-7.87,5.04-11.76-3.07-.18-5.47,2.04-6.93-1.61l26.67-4.59c-3.08,2.72-7.21,1.19-10.5,3.4-6.54,2.29-11.37,7.6-11.64,14.67,4.04,1.48,7.81.26,12.15,1.31-3.47,2.71-7.62,2.02-12.34,1.73-.58,6.72.14,21.54,7.16,25.06-5.35.62-10.2-.54-15.41-2.02l-38.77-11.05c-2.86-.81-3.88-2.57-4.46-5.68Z"/>
      <path class="cls-17" d="M134.38,90.8c-.86,5.21-13.85,25.39-8.74,42.67-3.96-.27-6.92-1.37-10.63-2.6-.55-6.67.04-12.94,1.9-19.56l12.8-45.45c2.25-1.48,5.87-.52,8.74.3l-4.08,24.63ZM121.13,114.68l8.6-38.07c-5.12,6.48-5.13,14.37-7.11,21.56-2.83,10.29-5.27,20.39-4.47,30.86.03.4,1.04,1.42,1.35,1.26.53-.26-.34-6.91,1.63-15.62Z"/>
      <path class="cls-1" d="M112.68,130.31c-2.93.06-5.44-1.21-8.33-2.27-.39-15.47,6.7-33.82,11.68-48.49l4.85-14.29c.65-1.92,6.06-1.48,6.87.32l-4.15,15.32c-3.99,14.73-11.69,30.82-10.92,49.41Z"/>
      <path class="cls-2" d="M155.47,181.96c-2.84,1.72-2.07-4.09-5.49-6.49-1.88-1.32-18.23,1.83-22.76.21-.52-2.78,11.93.83,12.79-4.69.38-2.4-4.1-1.02-5.88-2.35-1.18-.88-.54-16.44-.83-15.01.73-3.7,4.16-6.7,4.03-10.65-.02-.76-1.26-1.49-1.12-2.07.16-.65,7.5-10.1,14.69-5.18,2.4-17.83,4.45-34.16,5.19-51.37.28-6.56.03-12.87-4.1-17.84,12.84-2.73.65,67.31,1.34,66.47l-2.42,2.93c-.8.97,1.31,2.42,1.31,3.79-.02,7.38-1.37,22.09-9.23,24.98-2.23.82-4.54-2.67-6.42-3.09-1.32-.29-1.15,2.07-1.05,3.25.26,3.1,8,4.71,13.44.06,4.62.02,9.46,15.27,6.51,17.06ZM146.43,140.18c-1.45-.05-9.45,8.43-9.27,16.98.04,2.01,1.71,4.12,3.33,4.27,6.52.62,12.28-21.03,5.94-21.25Z"/>
      <path class="cls-14" d="M79.57,147.59c-1.28.4-13.3-1.65-13.31-5.76-5.75,5.9-6.8-1.27-15.19-1.89-5.19-.38-.92-5.84,11.66-6.85l18.19-1.45c3.3-.26,6.4-.26,8.71,1.27-2.13.04-26.55,2.76-17.76,4.98,10.7-2.02,20.95-3.57,31.13-2.13-6.55,1.53-13.17,1.64-18.8,4.98-1.94,1.15-1.61,5.9-4.64,6.84Z"/>
      <path class="cls-11" d="M72.11,128.5c-8.49,2.47-18.15,1.38-25.54,7.36-1.37,1.11-2.46,2.64-4.19,2.53-4.53-.3-5.83-4.16-7.5-8.81,11.23-12.35,24.17-8.19,37.22-1.08Z"/>
      <path class="cls-3" d="M54.49,22.44c-1.65.31-1.94,3.02-3.91,2.92-1.53-.07.52-4.2,2.01-4.5l47.41-9.35c9.07-1.79,18.96,4.5,28.2,5.88-9.53,2.13-18.8-5.4-28.39-3.57l-45.33,8.63Z"/>
      <path class="cls-16" d="M189.25,103.09c-2.94-5.57-.93-11.2-.44-16.68,1.21-13.41-1.69-26.17,1.01-39.82,1.74,10.67,1.57,21.12.51,31.28-.87,8.41.4,15.98-1.09,25.21Z"/>
      <path class="cls-6" d="M149.5,60.76c-1.78-2.61,1.5-2.74,1.76-4.47.68-4.45.81-22.59-7.06-24.15,3.69-1.25,6.59,1.09,7.34,4.31,1.21,5.18,4.77,21.29-2.05,24.3Z"/>
      <path class="cls-7" d="M107.98,179.84c-.74-2.7,2.78-4.06,5.04-5.14l15.5-7.45c.6-.29,1.31-.05,1.64-.16.55-.17.54.49.61.81.19.81-.55,1.38-1.21,2.03-7.39,2.23-13.52,5.98-21.58,9.9Z"/>
      <path class="cls-15" d="M130.56,135.67c-7.6-2.22-2.76-30.86,3.23-36.5-3.03,13.32-7.98,20.52-3.23,36.5Z"/>
      <path class="cls-13" d="M140.08,116.09l-1.74,16.34c-1.74-10.06-.15-19.82,3.88-29.51,1.67,4.53-1.63,8.36-2.14,13.17Z"/>
      <path class="cls-8" d="M133.69,146.87c-10.73,1.24-21.93-1.19-30.47,8.33,4.27-6.6,12.23-10.03,20.75-9.6,3.25.17,6.85-1.79,9.72,1.27Z"/>
      <circle class="cls-5" cx="188.44" cy="105.35" r=".63"/>
    </g>
  </g>
</svg>