<?xml version="1.0" encoding="UTF-8"?>
<svg id="Camada_2" data-name="Camada 2" xmlns="http://www.w3.org/2000/svg" xmlns:xlink="http://www.w3.org/1999/xlink" viewBox="0 0 225.09 224.16">
  <defs>
    <style>
      .cls-1 {
        fill: url(#Gradiente_sem_nome_83-6);
      }

      .cls-2 {
        fill: url(#Gradiente_sem_nome_83-7);
      }

      .cls-3 {
        fill: url(#Gradiente_sem_nome_83-20);
      }

      .cls-4 {
        fill: url(#Gradiente_sem_nome_83-10);
      }

      .cls-5 {
        fill: url(#Gradiente_sem_nome_83-3);
      }

      .cls-6 {
        fill: url(#Gradiente_sem_nome_83-17);
      }

      .cls-7 {
        fill: url(#Gradiente_sem_nome_83-12);
      }

      .cls-8 {
        fill: url(#Gradiente_sem_nome_83-13);
      }

      .cls-9 {
        fill: url(#Gradiente_sem_nome_83-16);
      }

      .cls-10 {
        fill: url(#Gradiente_sem_nome_83-18);
      }

      .cls-11 {
        fill: url(#Gradiente_sem_nome_83);
      }

      .cls-12 {
        fill: url(#Gradiente_sem_nome_83-2);
      }

      .cls-13 {
        fill: url(#Gradiente_sem_nome_83-19);
      }

      .cls-14 {
        fill: url(#Gradiente_sem_nome_83-9);
      }

      .cls-15 {
        fill: url(#Gradiente_sem_nome_83-4);
      }

      .cls-16 {
        fill: url(#Gradiente_sem_nome_83-15);
      }

      .cls-17 {
        fill: url(#Gradiente_sem_nome_83-8);
      }

      .cls-18 {
        fill: url(#Gradiente_sem_nome_83-14);
      }

      .cls-19 {
        fill: url(#Gradiente_sem_nome_83-11);
      }

      .cls-20 {
        fill: url(#Gradiente_sem_nome_83-5);
      }
    </style>
    <linearGradient id="Gradiente_sem_nome_83" data-name="Gradiente sem nome 83" x1="1.43" y1="111.49" x2="218.95" y2="111.49" gradientUnits="userSpaceOnUse">
      <stop offset="0" stop-color="#b8a901"/>
      <stop offset="1" stop-color="#daff00"/>
    </linearGradient>
    <linearGradient id="Gradiente_sem_nome_83-2" data-name="Gradiente sem nome 83" x1="105.65" y1="81.39" x2="224.69" y2="81.39" xlink:href="#Gradiente_sem_nome_83"/>
    <linearGradient id="Gradiente_sem_nome_83-3" data-name="Gradiente sem nome 83" x1="113.77" y1="65.45" x2="130.66" y2="65.45" xlink:href="#Gradiente_sem_nome_83"/>
    <linearGradient id="Gradiente_sem_nome_83-4" data-name="Gradiente sem nome 83" x1="2.2" y1="54.93" x2="218.55" y2="54.93" xlink:href="#Gradiente_sem_nome_83"/>
    <linearGradient id="Gradiente_sem_nome_83-5" data-name="Gradiente sem nome 83" x1="22.81" y1="197.01" x2="207.92" y2="197.01" xlink:href="#Gradiente_sem_nome_83"/>
    <linearGradient id="Gradiente_sem_nome_83-6" data-name="Gradiente sem nome 83" x1="112.18" y1="124.68" x2="225.09" y2="124.68" gradientTransform="translate(1.62 -2.17) rotate(.74)" xlink:href="#Gradiente_sem_nome_83"/>
    <linearGradient id="Gradiente_sem_nome_83-7" data-name="Gradiente sem nome 83" x1="0" y1="151.89" x2="58.2" y2="151.89" xlink:href="#Gradiente_sem_nome_83"/>
    <linearGradient id="Gradiente_sem_nome_83-8" data-name="Gradiente sem nome 83" x1="67.25" y1="156.63" x2="85.33" y2="156.63" xlink:href="#Gradiente_sem_nome_83"/>
    <linearGradient id="Gradiente_sem_nome_83-9" data-name="Gradiente sem nome 83" x1="172.1" y1="154.14" x2="186.48" y2="154.14" xlink:href="#Gradiente_sem_nome_83"/>
    <linearGradient id="Gradiente_sem_nome_83-10" data-name="Gradiente sem nome 83" x1="130.83" y1="108.96" x2="143.52" y2="108.96" xlink:href="#Gradiente_sem_nome_83"/>
    <linearGradient id="Gradiente_sem_nome_83-11" data-name="Gradiente sem nome 83" x1="214.24" y1="137.23" x2="222.47" y2="137.23" xlink:href="#Gradiente_sem_nome_83"/>
    <linearGradient id="Gradiente_sem_nome_83-12" data-name="Gradiente sem nome 83" x1="197.43" y1="109.36" x2="208.46" y2="109.36" xlink:href="#Gradiente_sem_nome_83"/>
    <linearGradient id="Gradiente_sem_nome_83-13" data-name="Gradiente sem nome 83" x1="36.78" y1="143.46" x2="44.7" y2="143.46" xlink:href="#Gradiente_sem_nome_83"/>
    <linearGradient id="Gradiente_sem_nome_83-14" data-name="Gradiente sem nome 83" x1="71.49" y1="60.15" x2="86.97" y2="60.15" xlink:href="#Gradiente_sem_nome_83"/>
    <linearGradient id="Gradiente_sem_nome_83-15" data-name="Gradiente sem nome 83" x1="218.99" y1="113.96" x2="224.84" y2="113.96" xlink:href="#Gradiente_sem_nome_83"/>
    <linearGradient id="Gradiente_sem_nome_83-16" data-name="Gradiente sem nome 83" x1="162.17" y1="72.94" x2="171.82" y2="72.94" xlink:href="#Gradiente_sem_nome_83"/>
    <linearGradient id="Gradiente_sem_nome_83-17" data-name="Gradiente sem nome 83" x1="210.27" y1="157.02" x2="214.94" y2="157.02" xlink:href="#Gradiente_sem_nome_83"/>
    <linearGradient id="Gradiente_sem_nome_83-18" data-name="Gradiente sem nome 83" x1="33.25" y1="85.22" x2="45.04" y2="85.22" xlink:href="#Gradiente_sem_nome_83"/>
    <linearGradient id="Gradiente_sem_nome_83-19" data-name="Gradiente sem nome 83" x1="73.31" y1="154.84" x2="78.24" y2="154.84" xlink:href="#Gradiente_sem_nome_83"/>
    <linearGradient id="Gradiente_sem_nome_83-20" data-name="Gradiente sem nome 83" x1="135.59" y1="107.22" x2="139.95" y2="107.22" xlink:href="#Gradiente_sem_nome_83"/>
  </defs>
  <g id="Camada_1-2" data-name="Camada 1">
    <g>
      <path class="cls-11" d="M179.07,133.87c-9.89,1.83-15.62,10.72-16.82,20.25l-66.72,2.78c-.09-7.08-2.03-14.07-6.9-19.55s-13.09-6.59-19.56-2.8c-5.45,3.2-8.44,8.41-10.73,14.2-3.64.7-7.13,1.06-10.71.44.6-3.73,1.04-7.32-1.41-9.87-1.85-1.93-6.02-3.09-9.19-1.6-2.15,1.01-1.96,4.1-2.6,7.22-6.37-2.28-13.55-1.88-20.58-3.25-3.8-.74-6.29.9-11.03.9,1.37-5.71,14.18-1.38,16.48-2.62l-.27-21.83-11.82-.35c-.68-.02-1.36-.37-1.72-.46-.49-.12-1.82,1.25-1.24,1.79,5.87,5.54.27,2.96,2.69,16.05.34,1.85-1.47,3.51-2.74,3.53-1.54.03-2.75-1.62-2.8-3.63-.06-2.27,1.98-3.6,2.4-5.71-8.26-16.2,11.89-20.65,17.54-27.56,6.58-8.04,7.8-19.73,13.41-28.48,2.96-4.62,21.78-6.65,27.25-6.93,11.28-.59,22.4-.22,33.71.45,4.17.25,5.72,3.7,5.75,7.41l.52,66.01c0,1.25-.13,2.24-.52,3.07-.3.64-1.38.43-2.78,1.49,1.75.56,3.38,1.24,5.16,2.69l.88-11.27,18.38.74c.68,1.44-.57,2.34-.31,4.16l26.69-1.3c3.38-.17,6.5-1.31,10.33-.46,2.16-5.8,7-7.41,12.91-7.45l23.7-.15c.98,3.01.71,5.92,1.42,9.51,1.12-2.43,21.19,8.15,21.07,9.61-6.22,1.31-11.37,1.55-17.08,1.24.32-2.19,2.04-2.26,3.21-3.9-1.48-1.95-2.32-3.75-4.4-5.43-4.52,2.35,2.1,11.1-4.2,9.89-.47-3.35-.71-7.44-2.22-10.78-2.53-5.61-8.01-9.37-15.19-8.04ZM54.56,99.03l8.58-22.4c4.55-7.71-24.54-2.14-27.81-1.75l-9.34,24.9c9.82.45,18.78-.21,28.57-.75ZM60.86,101.07c1.62-2.6,5.79,0,7.61.77,4.4-5.48,24.86.03,25.37-5.75.63-7.06.5-14.19-.71-21.09-6.52-2.02-12.76-1.18-19.38-1.31-2.58-.05-4.95.96-6.15,3.28-3.34,6.46-5.53,13.13-8,20.06-.49,1.36-2.45,1.6-3.75,2.83l2.55,29.55c2.14-7.83-.41-15.04.35-22.97,2.07.52,4.16.98,5.98.15,1.45-.67,3.7-1.77,2.87-4.82-1.92,1.7-2.68,3.07-4.48,3.1-1.27.02-3.35-2.06-2.26-3.8ZM34.7,116.74c-3.39-4.1-9.25-.93-12.39-3.14s.6-7.29,1.43-10.3c-3.8,2.41-4.47,7.09-5.52,11.33-3.52-.17-6.37-.59-8.63,1.34,15.14-1.55,13.05,2.04,25.11.78ZM97.24,117.22c.67-2.35.49-3.15.21-4.28.18.7-8.41-3.7-13.5-1.7-1.4.55-2.51,4.22-1.25,4.93,10.36,3.27,11.02-3.85,14.54,1.04ZM41.4,131.47c4.57-4.81,1.89-11.82-2.27-14.26-.91-.17-1.98,2.65-1.43,3.38.49.65,2.09.9,2.9,1.6,3.28,2.81-.46,6.19.79,9.28ZM33.01,121.71c1.5.46,1.68-.34,1.76-1.11.34-3.35-11.34-1.94-13.38-2.02-1.98,4.44,6.29,1.5,11.62,3.14ZM34.43,137.29c.52-2.14-2.5-1.98-3.68-2.57,1.57-.91,4.48.15,3.84-2.11-.57-1.99-3.13-.92-4.96-1.55.63-1.7,2.33-1.03,4.36-.81.71-2.27.45-4.33.72-7.07l-10.92-.92c-1.21-.1-2.47-.47-2.61.44-.07.45-.38,1.89.18,2.17,1.65.84,3.76-.34,5.43.86-1.67,1.3-3.31.68-5.17.64-1.83,2.13-.24,5.27.14,7.32.32,1.77-2.45,5.6.31,6.83,3.22,1.44,7.67,1.28,11.19,1.1.64-2.25-1.95-2.33-3.63-2.72.89-2.08,3.69-.1,4.82-1.62ZM39.72,132.75c0-.28-.22-.5-.5-.5s-.5.22-.5.5.22.5.5.5.5-.22.5-.5Z"/>
      <path class="cls-12" d="M113.77,70.5c-.32.98-1.41,2.01-.6,3.26,13.14-.45,25.06.62,37.57,1.6.83-1.08-.47-2.82-1.43-2.67-.71.11-2.47.66-3.37-.09-1.5-1.23.65-2.11,1.53-2.24,1.42-.19,2.86.37,3.53,3.07,1.81-2.66,3.57-4.54,2.47-7.45-.89-2.33-1.53-6.18-4.85-6.83-9.61-1.88-18.96-.55-28.75,1.24,2.5-2.93,5.86-4.5,9.64-5.14,15.67-2.66,31.62-2.09,46.89,2.29,4.94,1.42,8.18,4.42,10.38,8.73,1.55,3.05,4.24,5.22,4.64,8.87-2.26-.42-2.54-2.62-4.22-3.34-2.01,1.93-6.54,2.3-8.47.47-1.47-1.39-1.85-7.12.04-7.85,3.02-1.17,4.85,3.36,6.81,4.72-.13-2.79-2.84-5.24-4.55-7.33-7.81-1.88-16.87-3.54-24.57-.69-3.17,1.99.99,8.07-.21,10.27-1.47,1.69-4.82,2.9-3.99,6.23-3.2,1.11-5.88.55-8.89,2.63,3.86,3.23,13.55-5.32,17.54,0,.81,1.08.47,11.1.29,11.2-1.25.66-2.17.39-3.34.81,1.14.38,3.41.18,3.83,2.04.72,3.18.94,6.35.6,9.51-4.22.13-7.28-1.24-10.63.8,14.22,2.2,25.08,0,38.55,1.2,2.36-2.06.9-5.36,1.93-7.72,2.49-5.68,9.15-5.37,14.65-5.19-4.03-2.08-10.86-1.77-14.21,2.02-2.25,2.55-1.18,6.46-3.01,9.47-8.3.34-16.39-.24-24.99-.86-.33-3.45-1.21-6.24-.6-9.38.32-1.64,3.61-.98,5.01-.8,1.31.16.97,2.39,2.34,3.41,1.89,1.42,5.65,2.15,7.59.85.83-.56,1.05-3.74,2.6-2.17,1.32,1.34-.59,3.48,1.27,5,2.35-3.13-1.62-8.97,2.32-12.31,1.34-1.14,3.53-1.3,5.86-1.64,2.12-.31,1.82-2.87,1.44-4.5s-7.32-5.49-9.42-4.05l7.77,5.73c-5.44,1.54-9.17,3.72-10.53,9.53l-17.21-2.13c.42-4.94-.88-8.51-1.62-13.16,7.87.19,29.74-3.16,35.21-1.25l14.05,4.9c3.3,1.15,7.39-.92,9.52,2.8-3.49.37-7.57.16-7.19,3.95.4,4.01,6.08,7.45,9.6,3.91-1.75-.43-2.97.13-3.95-.34-1.71-.83-3.37-2.8-2.03-4.64,1.05-1.44,2.71-2.14,4.22-3.48,9.5,11.69-2.03,11.23,2.45,19.04,1.07,1.86-.71,4.66-2.86,5.03-3.88.66-7.54.84-11.25.26.17-4.17.43-7.98-2.01-11.41-1.68-2.36-5.57-1.99-8.23-.93-4.14,1.65-4.27,9.25-5.78,12.95-14.74.77-29.16.45-43.8-.7-.79-5.05-1.43-9.93-4.99-13.35-3.13-3.01-7.81-2.68-11.16-.66-7.83,4.7-4.2,13.03-6.84,13.93-4.68,1.58-9.49.68-14.05.12.29-2.24.12-3.73-.29-5.6,2.24-.94,4.49,1.06,6.86-.98-1.96-1.29-5.58-.36-6.05-3.25-1.17-7.22,1.78-13.44-1.84-15.93,1.25-1.89,3.33-.02,5.92-.26-3.27-5.07-10.89-3.82-11.24-6.04-.06-.39.31-1.98.86-1.89,3.42.57,5.01-1.84,7.25-3.57ZM116.59,97.19c-1.61-6.64,4.13-6.73,1.22-11.41-1.06-.12-2.43,1.73-2.54,2.45-.09.64.94,1.22,1.55,2.09-1.26,1.06-2.6,2.05-2.41,3.37.25,1.68-.3,4.1,2.17,3.49ZM117.67,98.82c3.56-1.66,3.35-4.38,3.04-7.65-.11-1.15-.97-1.12-1.51-.95-2.24.7.87,3.27-1.53,8.6ZM214.77,95.59c-2.94-1.83-4.56-2.16-6.79-1.89,3.14,1.47,4.84,3.78,6.79,1.89Z"/>
      <path class="cls-5" d="M113.77,70.5c1.18-3.64,2.89-7.96,6.09-10.11-.03.97-.34,2.07.73,3.15,3.16-2.59,6.47-3.17,10.06-2.62-2.78,5.21-7.44,8.03-12.74,5.02-.9,2.65-2.39,3.2-4.15,4.56Z"/>
      <path class="cls-15" d="M118.96,8.47c11.19-3.34,20.32,3.3,31.28,3.33-24.79-10.28-51.07-8.75-75.36.43C36.74,26.65,10.93,62.2,7.05,102.64c-.33,3.46-1.1,5.73-4.84,7.22-.15-11.71,2.02-22.84,6.12-34.29C25.31,28.08,71.08-3.41,121.81.3c45.33,3.32,82.94,34.87,96.74,77.5-1.88-.16-4.93-.59-5.62-2.49-6.32-17.32-16.41-32.04-29.82-44.37-2.28-2.09-3.95-1.17-5.85-2.25-6.97-3.98-13.23-8.28-20.94-11.13-12.19-4.5-23.93-7.56-37.35-9.09ZM152.36,12.75c0-.35-.28-.63-.63-.63s-.63.28-.63.63.28.63.63.63.63-.28.63-.63Z"/>
      <path class="cls-20" d="M22.81,176.21c2.98-2.78,5.64-.55,7.82,2.3,20.88,27.33,53.75,42.07,88.18,40.39,33.17-1.62,64.19-19.38,82.94-47.79,1.06-1.61,4.44-1.43,6.17-.81-21.8,35.63-61.47,56.77-103.04,53.52-33.34-2.61-62.24-19.82-82.08-47.62Z"/>
      <rect class="cls-1" x="112.22" y="121.29" width="112.84" height="6.78" transform="translate(-1.6 2.19) rotate(-.74)"/>
      <path class="cls-2" d="M56.07,157.8c-7.61,1.21-27.94-.21-34.49-1.4l-17.18-3.12c-1.67-.3-3.18-1.34-3.76-2.41-.69-1.29-1.1-4.43.23-5.36l32.79,3.97c8.16.99,15.53,2.25,23.58,2.1,1.6-.03,1.18,5.83-1.17,6.21ZM11.18,151.19c-2.91-2.65-5.52-1.85-8.18-1.42,1.98,2.28,5.15,2.94,8.18,1.42ZM26.42,152.5c-4.67-1.98-8.18-2.34-12.52-1.34,3.59,3.16,8.97,3.63,12.52,1.34Z"/>
      <path class="cls-17" d="M85.33,155.55c-.02,4.6-1.19,7.33-3.42,9.68s-6.46,4.13-9.7,2.28c-4.02-2.3-5.19-7.32-4.93-11.67.23-3.79,2.54-9.19,7.18-10.54,5.9-1.72,10.9,4.23,10.87,10.26ZM76.47,163.72c3.72,0,5.39-4.61,5.62-7.01.29-3.14-1.14-7.37-4.68-7.79-4.16-.5-6.69,3.89-6.83,6.86-.17,3.55,1.47,7.94,5.89,7.95Z"/>
      <path class="cls-14" d="M180.64,163.39c-5.82,1.58-9.01-5.13-8.49-9.99.31-2.87,1.03-4.92,2.68-6.57s4.49-2.95,7.22-1.61c3.6,1.77,4.59,5.75,4.4,9.54-.13,2.74-1.63,7.5-5.81,8.63ZM183.54,150.38c-1.05-2.81-3.05-3.83-5.42-2.92-2.65,1.01-3.93,3.92-4.04,6.46-.08,1.89,1.31,5.69,4.04,5.91,4.55.37,6.98-5.24,5.42-9.45Z"/>
      <path class="cls-4" d="M140.63,116.69c-2.41,2.95-6.31,1.49-8.07-1.25-3.27-5.07-1.81-12.38,3.65-15.44,2.23-1.25,4.89.63,5.95,2.7,2.17,4.24,1.8,9.92-1.52,13.99ZM141.42,107.88c.04-2.72-.59-4.28-1.8-5.14s-2.92-1.2-4.35.14c-3.01,2.82-2.88,9.89,1.48,11.28,3.63,1.16,4.63-3.43,4.68-6.28Z"/>
      <path class="cls-19" d="M217.67,145.22c-6.52,1.46-1.95-13.61-.95-15.17.95-1.48,3.98-.83,5.74-.41-2.2,4.88-1.66,10.24-4.79,15.58Z"/>
      <path class="cls-7" d="M203.06,113.78l5.09-3.64c1.5,3.4-2.76,7.56-6.25,6.66-2.92-.75-3.96-4.29-4.36-6.57-.49-2.76.78-6,3.34-7.77,1.32-.91,2.91-.74,3.76-.32,1.45.71,2.94,1.94,1.78,4.2-1.07-.37-.61-1.94-1.37-2.98-2.4-.75-5.29,1.36-6.04,3.82-.67,2.21,1.84,8.2,4.06,6.61Z"/>
      <path class="cls-8" d="M44.25,141.96c1.13,2.19-.07,4.66-1.27,4.92-1.58.33-3.95.65-5.13-.36-.97-.83-1.47-3.5-.69-5.32,1.02-2.38,5.8-1.75,7.09.76Z"/>
      <path class="cls-18" d="M86.97,61.33c-4.98,1.37-9.94.78-15.48.21,4-3.42,10.92-5.48,15.48-.21Z"/>
      <path class="cls-16" d="M224.44,110.13c.45,2.99.71,6.21-.24,7.62-.61.91-3.58.42-4.43-.17s-.68-2.69-.78-4.65c-.09-1.86,4.77-4.3,5.45-2.8Z"/>
      <path class="cls-9" d="M171.82,75.5c-3.39.07-6.31-.23-9.65-.59,1.63-2.51,3.69-3.84,6.3-4.54,1.29,1.45,2.57,1.74,3.36,5.12Z"/>
      <path class="cls-6" d="M214.69,155.2c1.01,1-1.32,4.61-2.7,4.19-1.82-.55-1.81-2.61-1.66-3.49.2-1.23,3.24-1.81,4.36-.7Z"/>
      <path class="cls-10" d="M33.25,94.26c.27-5.33,2.9-10.53,4.97-15.76,1.08-2.73,5.38-2.6,6.82-1.93-5.23,5.15-4.68,12.98-11.79,17.69Z"/>
      <circle class="cls-13" cx="75.78" cy="154.84" r="2.46"/>
      <path class="cls-3" d="M138.03,110.33c-3.26.24-3.11-6.37-.43-6.22s3.39,6,.43,6.22Z"/>
    </g>
  </g>
</svg>